<svg width="20" height="20" viewBox="0 0 20 20" fill="none" xmlns="http://www.w3.org/2000/svg">
<path d="M10.0013 19.1667C5.37047 18.1375 1.66797 13.7683 1.66797 9.16666V4.16666L10.0013 0.833328L18.3346 4.16666V9.16666C18.3346 13.77 14.6321 18.1375 10.0013 19.1667ZM3.33464 5V9.16666C3.38226 11.0934 4.05994 12.9515 5.26395 14.4565C6.46796 15.9616 8.13198 17.0306 10.0013 17.5C11.8706 17.0306 13.5346 15.9616 14.7387 14.4565C15.9427 12.9515 16.6203 11.0934 16.668 9.16666V5L10.0013 2.49999L3.33464 5Z" fill="currentColor" fill-opacity="0.75"/>
<path d="M10.0013 9.16667C11.1519 9.16667 12.0846 8.23393 12.0846 7.08333C12.0846 5.93274 11.1519 5 10.0013 5C8.85071 5 7.91797 5.93274 7.91797 7.08333C7.91797 8.23393 8.85071 9.16667 10.0013 9.16667Z" fill="currentColor" fill-opacity="0.75"/>
<path d="M5.83203 12.5C6.24264 13.2486 6.84486 13.8746 7.57701 14.3139C8.30916 14.7532 9.14493 14.99 9.9987 15C10.8525 14.99 11.6882 14.7532 12.4204 14.3139C13.1525 13.8746 13.7548 13.2486 14.1654 12.5C14.1445 10.92 11.3804 10 9.9987 10C8.60953 10 5.85286 10.92 5.83203 12.5Z" fill="currentColor" fill-opacity="0.75"/>
</svg>
