<svg width="20" height="20" viewBox="0 0 20 20" fill="none" xmlns="http://www.w3.org/2000/svg">
<path d="M7.93934 15.0943L8.125 14.89V13.8828L5.08301 7.46094H3.66699L0.625 13.8828V14.9391L0.790391 15.1186C1.24465 15.6105 1.79568 16.0031 2.40891 16.2719C3.02213 16.5407 3.68429 16.6798 4.35383 16.6804H4.37023C5.04252 16.6774 5.70687 16.5349 6.32124 16.2619C6.9356 15.9889 7.48659 15.5913 7.93934 15.0943ZM6.875 14.3987C6.20813 15.0611 5.30589 15.4321 4.36598 15.4305H4.35309C3.42971 15.4351 2.54084 15.0799 1.875 14.4401V14.1641L4.375 8.88625L6.875 14.1641V14.3987ZM16.333 7.46094H14.917L11.875 13.8828V14.9391L12.0404 15.1186C12.4946 15.6105 13.0457 16.0031 13.6589 16.2719C14.2721 16.5407 14.9343 16.6798 15.6038 16.6804H15.6202C16.2925 16.6774 16.9569 16.5349 17.5712 16.2619C18.1856 15.9888 18.7366 15.5912 19.1893 15.0942L19.375 14.89V13.8828L16.333 7.46094ZM18.125 14.3987C17.4581 15.0611 16.5559 15.4321 15.616 15.4305H15.6031C14.6797 15.4351 13.7908 15.0799 13.125 14.4401V14.1641L15.625 8.88625L18.125 14.1641V14.3987Z" fill="currentColor"/>
<path d="M10.625 7.68199C10.9727 7.57748 11.289 7.38841 11.5458 7.13169C11.8025 6.87497 11.9915 6.55862 12.0961 6.21093H16.25V4.96093H12.0961C11.9615 4.5095 11.6848 4.11356 11.3072 3.83203C10.9295 3.5505 10.4711 3.39842 10 3.39842C9.52895 3.39842 9.07048 3.5505 8.69282 3.83203C8.31516 4.11356 8.03848 4.5095 7.90395 4.96093H3.75V6.21093H7.90395C8.00845 6.55862 8.19752 6.87497 8.45424 7.13169C8.71096 7.38841 9.02731 7.57748 9.375 7.68199V18.0859H5.3125V19.3359H14.6875V18.0859H10.625V7.68199ZM9.0625 5.58593C9.0625 5.40051 9.11748 5.21926 9.2205 5.06509C9.32351 4.91091 9.46993 4.79075 9.64123 4.7198C9.81254 4.64884 10.001 4.63027 10.1829 4.66645C10.3648 4.70262 10.5318 4.79191 10.6629 4.92302C10.794 5.05413 10.8833 5.22118 10.9195 5.40303C10.9557 5.58489 10.9371 5.77339 10.8661 5.9447C10.7952 6.116 10.675 6.26242 10.5208 6.36544C10.3667 6.46845 10.1854 6.52343 10 6.52343C9.75136 6.52343 9.5129 6.42466 9.33709 6.24885C9.16127 6.07303 9.0625 5.83457 9.0625 5.58593Z" fill="currentColor"/>
</svg>
