<svg width="18" height="19" viewBox="0 0 18 19" fill="none" xmlns="http://www.w3.org/2000/svg">
<path d="M12.5662 2H5.43375C4.5645 2 4.13025 2 3.77925 2.12225C3.44833 2.23959 3.14892 2.43163 2.90425 2.68345C2.65959 2.93527 2.47626 3.24009 2.3685 3.57425C2.25 3.93575 2.25 4.38275 2.25 5.2775V15.7805C2.25 16.424 2.98875 16.766 3.456 16.3385C3.58709 16.2174 3.75902 16.1501 3.9375 16.1501C4.11598 16.1501 4.28791 16.2174 4.419 16.3385L4.78125 16.67C5.01091 16.8824 5.3122 17.0003 5.625 17.0003C5.9378 17.0003 6.23909 16.8824 6.46875 16.67C6.69841 16.4576 6.9997 16.3397 7.3125 16.3397C7.6253 16.3397 7.92659 16.4576 8.15625 16.67C8.38591 16.8824 8.6872 17.0003 9 17.0003C9.3128 17.0003 9.61409 16.8824 9.84375 16.67C10.0734 16.4576 10.3747 16.3397 10.6875 16.3397C11.0003 16.3397 11.3016 16.4576 11.5312 16.67C11.7609 16.8824 12.0622 17.0003 12.375 17.0003C12.6878 17.0003 12.9891 16.8824 13.2188 16.67L13.581 16.3385C13.7121 16.2174 13.884 16.1501 14.0625 16.1501C14.241 16.1501 14.4129 16.2174 14.544 16.3385C15.0113 16.766 15.75 16.424 15.75 15.7805V5.2775C15.75 4.38275 15.75 3.935 15.6315 3.575C15.5239 3.24068 15.3406 2.93567 15.0959 2.68371C14.8513 2.43175 14.5518 2.23962 14.2208 2.12225C13.8698 2 13.4355 2 12.5662 2Z" stroke="currentColor" stroke-opacity="0.75" stroke-width="1.5"/>
<path d="M7.125 8.3L8.19675 9.5L10.875 6.5" stroke="currentColor" stroke-opacity="0.75" stroke-width="1.5" stroke-linecap="round" stroke-linejoin="round"/>
<path d="M5.625 12.125H12.375" stroke="currentColor" stroke-opacity="0.75" stroke-width="1.5" stroke-linecap="round"/>
</svg>
