<svg width="20" height="20" viewBox="0 0 20 20" fill="none" xmlns="http://www.w3.org/2000/svg">
<path fill-rule="evenodd" clip-rule="evenodd" d="M4.37085 13.3333V15C4.37085 15.221 4.45865 15.433 4.61493 15.5893C4.77121 15.7455 4.98317 15.8333 5.20418 15.8333H17.7042C17.9252 15.8333 18.1372 15.7455 18.2934 15.5893C18.4497 15.433 18.5375 15.221 18.5375 15V8.33333C18.5375 8.11232 18.4497 7.90036 18.2934 7.74408C18.1372 7.5878 17.9252 7.5 17.7042 7.5H16.6667V9.02875C16.781 9.19893 16.9354 9.33837 17.1164 9.43479C17.2973 9.53121 17.4992 9.58165 17.7042 9.58167V13.75C17.3739 13.7519 17.0578 13.8844 16.8249 14.1186C16.592 14.3528 16.4613 14.6697 16.4613 15H6.4521C6.44794 14.6715 6.31464 14.3579 6.08103 14.1269C5.84741 13.896 5.53227 13.7662 5.20377 13.7658V13.3333H4.37085ZM8.75002 9.16667C8.97103 9.16667 9.18299 9.07887 9.33927 8.92259C9.49555 8.76631 9.58335 8.55435 9.58335 8.33333C9.58335 8.11232 9.49555 7.90036 9.33927 7.74408C9.18299 7.5878 8.97103 7.5 8.75002 7.5C8.529 7.5 8.31704 7.5878 8.16076 7.74408C8.00448 7.90036 7.91668 8.11232 7.91668 8.33333C7.91668 8.55435 8.00448 8.76631 8.16076 8.92259C8.31704 9.07887 8.529 9.16667 8.75002 9.16667ZM8.75002 10C9.19204 10 9.61597 9.82441 9.92853 9.51185C10.2411 9.19929 10.4167 8.77536 10.4167 8.33333C10.4167 7.89131 10.2411 7.46738 9.92853 7.15482C9.61597 6.84226 9.19204 6.66667 8.75002 6.66667C8.30799 6.66667 7.88407 6.84226 7.57151 7.15482C7.25894 7.46738 7.08335 7.89131 7.08335 8.33333C7.08335 8.77536 7.25894 9.19929 7.57151 9.51185C7.88407 9.82441 8.30799 10 8.75002 10Z" fill="currentColor"/>
<path fill-rule="evenodd" clip-rule="evenodd" d="M2.49996 4.16667C2.27895 4.16667 2.06698 4.25447 1.9107 4.41075C1.75442 4.56703 1.66663 4.77899 1.66663 5V11.6667C1.66663 11.8877 1.75442 12.0996 1.9107 12.2559C2.06698 12.4122 2.27895 12.5 2.49996 12.5H15C15.221 12.5 15.4329 12.4122 15.5892 12.2559C15.7455 12.0996 15.8333 11.8877 15.8333 11.6667V5C15.8333 4.77899 15.7455 4.56703 15.5892 4.41075C15.4329 4.25447 15.221 4.16667 15 4.16667H2.49996ZM3.74913 5H13.7504C13.7508 5.33116 13.8827 5.64861 14.1169 5.88266C14.3512 6.11671 14.6688 6.24822 15 6.24833V10.4167C14.6697 10.4185 14.3535 10.5511 14.1207 10.7853C13.8878 11.0195 13.757 11.3364 13.757 11.6667H3.74829C3.74413 11.3382 3.61083 11.0245 3.37722 10.7936C3.14361 10.5626 2.82847 10.4329 2.49996 10.4325V6.25C2.83134 6.24978 3.14906 6.11799 3.3833 5.88359C3.61754 5.64919 3.74913 5.33138 3.74913 5Z" fill="currentColor"/>
</svg>
