<svg width="25" height="25" viewBox="0 0 25 25" fill="none" xmlns="http://www.w3.org/2000/svg">
<path d="M12.0137 24.1124C10.3537 24.1124 8.79367 23.7972 7.33367 23.1668C5.87367 22.5364 4.60367 21.6816 3.52367 20.6024C2.44367 19.5232 1.58887 18.2532 0.959273 16.7924C0.329673 15.3316 0.0144734 13.7716 0.0136734 12.1124C0.0128734 10.4532 0.328073 8.89318 0.959273 7.43238C1.59047 5.97158 2.44527 4.70158 3.52367 3.62238C4.60207 2.54318 5.87207 1.68838 7.33367 1.05798C8.79527 0.427581 10.3553 0.112381 12.0137 0.112381C13.6721 0.112381 15.2321 0.427581 16.6937 1.05798C18.1553 1.68838 19.4253 2.54318 20.5037 3.62238C21.5821 4.70158 22.4373 5.97158 23.0693 7.43238C23.7013 8.89318 24.0161 10.4532 24.0137 12.1124C24.0113 13.7716 23.6961 15.3316 23.0681 16.7924C22.4401 18.2532 21.5853 19.5232 20.5037 20.6024C19.4221 21.6816 18.1521 22.5368 16.6937 23.168C15.2353 23.7992 13.6753 24.114 12.0137 24.1124ZM12.0137 21.7124C13.0937 21.7124 14.1337 21.5376 15.1337 21.188C16.1337 20.8384 17.0537 20.3332 17.8937 19.6724L4.45367 6.23238C3.79367 7.07238 3.28847 7.99238 2.93807 8.99238C2.58767 9.99238 2.41287 11.0324 2.41367 12.1124C2.41367 14.7924 3.34367 17.0624 5.20367 18.9224C7.06367 20.7824 9.33367 21.7124 12.0137 21.7124ZM19.5737 17.9924C20.2337 17.1524 20.7389 16.2324 21.0893 15.2324C21.4397 14.2324 21.6145 13.1924 21.6137 12.1124C21.6137 9.43238 20.6837 7.16238 18.8237 5.30238C16.9637 3.44238 14.6937 2.51238 12.0137 2.51238C10.9337 2.51238 9.89367 2.68718 8.89367 3.03678C7.89367 3.38638 6.97367 3.89158 6.13367 4.55238L19.5737 17.9924Z" fill="currentColor"/>
</svg>
