<svg width="20" height="20" viewBox="0 0 20 20" fill="none" xmlns="http://www.w3.org/2000/svg">
<path d="M16.6693 10H8.7526M15.0026 12.5L17.5026 10L15.0026 7.50004M10.8359 5.83337V5.00004C10.8359 4.55801 10.6603 4.13409 10.3478 3.82153C10.0352 3.50897 9.6113 3.33337 9.16927 3.33337H5.0026C4.56058 3.33337 4.13665 3.50897 3.82409 3.82153C3.51153 4.13409 3.33594 4.55801 3.33594 5.00004V15C3.33594 15.4421 3.51153 15.866 3.82409 16.1786C4.13665 16.4911 4.56058 16.6667 5.0026 16.6667H9.16927C9.6113 16.6667 10.0352 16.4911 10.3478 16.1786C10.6603 15.866 10.8359 15.4421 10.8359 15V14.1667" stroke="currentColor" stroke-width="1.5" stroke-linecap="round" stroke-linejoin="round"/>
</svg>
