<svg width="20" height="20" viewBox="0 0 20 20" fill="none" xmlns="http://www.w3.org/2000/svg">
<path d="M8.081 1.47644C8.611 1.85496 9.118 2.1042 9.535 2.15902C9.30611 2.62787 9.14763 3.13004 9.065 3.64826C8.393 3.49417 7.754 3.12703 7.229 2.75265C6.97761 2.57227 6.73435 2.38005 6.5 2.1766V4.487C6.49985 4.64161 6.45502 4.79264 6.37127 4.92071C6.28753 5.04878 6.16869 5.14805 6.03 5.20577L6.024 5.20887C5.96793 5.23264 5.91257 5.25816 5.858 5.2854C5.741 5.34228 5.571 5.43019 5.372 5.54809C4.88321 5.83286 4.43213 6.18187 4.03 6.58643C3.577 7.05492 3.297 7.68578 3.14 8.17496C2.937 8.80168 2.421 9.3798 1.687 9.50701C1.63489 9.51603 1.58754 9.54382 1.55332 9.58545C1.5191 9.62709 1.50022 9.67989 1.5 9.73453V11.5485C1.5 11.7192 1.62 11.865 1.783 11.8929C2.407 12.0005 2.898 12.4224 3.175 12.9333C3.54364 13.6147 3.99941 14.2415 4.53 14.7969C4.98727 15.2563 5.52526 15.6211 6.115 15.8715C6.36566 15.9807 6.62452 16.0685 6.889 16.1342L6.894 16.1362C7.06468 16.1708 7.21845 16.2656 7.32899 16.4044C7.43954 16.5433 7.49999 16.7175 7.5 16.8974V18.1901C7.5 18.3329 7.612 18.4487 7.75 18.4487H9C9 18.0373 9.15804 17.6427 9.43934 17.3518C9.72064 17.0608 10.1022 16.8974 10.5 16.8974H12.5C12.8978 16.8974 13.2794 17.0608 13.5607 17.3518C13.842 17.6427 14 18.0373 14 18.4487H15.25C15.3163 18.4487 15.3799 18.4215 15.4268 18.373C15.4737 18.3245 15.5 18.2587 15.5 18.1901V15.8632C15.5 15.5705 15.66 15.3027 15.912 15.1703L15.925 15.163L15.995 15.1217C16.06 15.0813 16.159 15.0183 16.28 14.9272C16.522 14.7452 16.851 14.4629 17.18 14.0658C17.833 13.2787 18.5 12.0305 18.5 10.1751C18.5 9.13366 18.312 8.29286 17.991 7.60201C18.3484 7.112 18.6186 6.56009 18.789 5.97211C18.889 6.11276 18.983 6.25858 19.071 6.40958C19.675 7.44274 20 8.68895 20 10.1741C20 12.4565 19.167 14.0523 18.32 15.0751C17.9343 15.5413 17.4904 15.9523 17 16.2976V18.1891C17.0001 18.4269 16.955 18.6623 16.8671 18.882C16.7792 19.1017 16.6503 19.3014 16.4878 19.4695C16.3253 19.6377 16.1323 19.7711 15.9199 19.8621C15.7075 19.9532 15.4799 20 15.25 20H14C13.6022 20 13.2206 19.8366 12.9393 19.5456C12.658 19.2547 12.5 18.8601 12.5 18.4487H10.5C10.5 18.8601 10.342 19.2547 10.0607 19.5456C9.77936 19.8366 9.39782 20 9 20H7.75C7.28587 20 6.84075 19.8093 6.51256 19.4699C6.18437 19.1305 6 18.6702 6 18.1901V17.4838C5.84332 17.4291 5.68855 17.3688 5.536 17.3028C4.76647 16.9744 4.0651 16.4962 3.47 15.8942C2.84222 15.237 2.30242 14.4958 1.865 13.6903C1.83259 13.6235 1.78628 13.565 1.7294 13.5188C1.67252 13.4727 1.60647 13.4401 1.536 13.4235C1.10698 13.3492 0.717293 13.1201 0.436103 12.7768C0.154913 12.4336 0.000405054 11.9984 0 11.5485V9.73557C0 8.86374 0.61 8.12014 1.44 7.97743C1.527 7.96191 1.656 7.87194 1.717 7.68371C1.909 7.08698 2.282 6.20067 2.97 5.48914C3.46626 4.98702 4.02361 4.55384 4.628 4.20053C4.76533 4.11986 4.88933 4.05091 5 3.99369V1.04311C5 0.0730352 6.13 -0.325132 6.74 0.302628C7.07 0.642879 7.55 1.09586 8.081 1.47541M11.07 6.39717C10.58 6.18723 10.166 5.78802 10.068 5.24921C9.88976 4.24531 10.0765 3.20871 10.5923 2.33853C11.1081 1.46836 11.9167 0.82599 12.8626 0.534831C13.8085 0.243671 14.8251 0.324258 15.7171 0.761108C16.609 1.19796 17.3134 1.96026 17.695 2.90157C18.0469 3.77874 18.0962 4.7544 17.8347 5.66474C17.5732 6.57508 17.0168 7.36465 16.259 7.90089C15.821 8.21012 15.256 8.18944 14.766 7.97949L11.07 6.39717ZM15.464 6.58332C15.9579 6.21093 16.3029 5.66443 16.4339 5.04698C16.5649 4.42954 16.4728 3.78385 16.1751 3.23181C15.8773 2.67976 15.3944 2.25954 14.8176 2.05047C14.2407 1.8414 13.6099 1.85794 13.044 2.09696C12.5237 2.31942 12.0913 2.71696 11.8167 3.22524C11.5421 3.73351 11.4415 4.32276 11.531 4.89758L11.552 4.91412C11.5809 4.93393 11.6118 4.95056 11.644 4.96377L15.34 6.54609C15.3797 6.56364 15.4213 6.57581 15.464 6.58229M7 7.5896C7 7.86389 6.89464 8.12694 6.70711 8.32089C6.51957 8.51484 6.26522 8.6238 6 8.6238C5.73478 8.6238 5.48043 8.51484 5.29289 8.32089C5.10536 8.12694 5 7.86389 5 7.5896C5 7.31531 5.10536 7.05226 5.29289 6.85831C5.48043 6.66436 5.73478 6.5554 6 6.5554C6.26522 6.5554 6.51957 6.66436 6.70711 6.85831C6.89464 7.05226 7 7.31531 7 7.5896Z" fill="currentColor"/>
</svg>
