<svg width="27" height="26" viewBox="0 0 27 26" fill="none" xmlns="http://www.w3.org/2000/svg">
<path d="M18.6642 11.8256C18.9283 11.8256 19.1583 11.7263 19.3542 11.5279C19.5501 11.3295 19.6481 11.0965 19.6481 10.8291C19.6481 10.5616 19.5501 10.3287 19.3542 10.1303C19.1583 9.93184 18.9283 9.83262 18.6642 9.83262C18.4001 9.83262 18.1701 9.93184 17.9742 10.1303C17.7783 10.3287 17.6803 10.5616 17.6803 10.8291C17.6803 11.0965 17.7783 11.3295 17.9742 11.5279C18.1701 11.7263 18.4001 11.8256 18.6642 11.8256ZM8.44199 8.88792H14.8309V7.5938H8.44199V8.88792ZM4.9281 23.7703C4.30284 21.5099 3.66736 19.268 3.02166 17.0447C2.37595 14.8214 2.0531 12.5339 2.0531 10.182C2.0531 8.56266 2.61192 7.18702 3.72954 6.05509C4.84717 4.92317 6.20503 4.35764 7.8031 4.35851H14.8309C15.3829 3.62172 16.0354 3.00615 16.7884 2.5118C17.5415 2.01745 18.3797 1.77027 19.3031 1.77027C19.4752 1.77027 19.6247 1.83455 19.7516 1.96309C19.8785 2.09164 19.942 2.24306 19.942 2.41733C19.942 2.46392 19.9343 2.51051 19.919 2.55709C19.9037 2.60282 19.8909 2.64639 19.8807 2.6878C19.7299 3.07517 19.6089 3.4716 19.5178 3.87709C19.4266 4.28258 19.3436 4.68937 19.2686 5.09745L23.0112 8.88792H25.0531V15.6743L21.6887 16.7976L19.6225 23.7703H14.8309V21.182H9.71977V23.7703H4.9281ZM5.88643 22.4762H8.44199V19.8879H16.1087V22.4762H18.6642L20.6448 15.8114L23.7753 14.7438V10.182H22.4975L18.0253 5.65262C18.0253 5.22125 18.0522 4.80627 18.1058 4.40768C18.1595 4.0091 18.2553 3.61266 18.3933 3.21839C17.7757 3.39094 17.2412 3.69592 16.7897 4.13333C16.3382 4.57074 15.9728 5.07717 15.6934 5.65262H7.8031C6.56792 5.65262 5.51375 6.09478 4.6406 6.97909C3.76745 7.86341 3.33088 8.93106 3.33088 10.182C3.33088 12.2958 3.61838 14.3612 4.19338 16.3783C4.76838 18.3954 5.33273 20.428 5.88643 22.4762Z" fill="currentColor"/>
</svg>
