<svg width="20" height="20" viewBox="0 0 20 20" fill="none" xmlns="http://www.w3.org/2000/svg">
<g clip-path="url(#clip0_2877_34378)">
<path d="M3.33073 4.00001V8.00001M3.33073 10.6667V14.6667M3.33073 18V20M16.6641 18V20M12.6641 12.6667C11.9568 12.6667 11.2785 12.3857 10.7784 11.8856C10.2783 11.3855 9.9974 10.7072 9.9974 10C9.9974 9.29276 10.2783 8.61448 10.7784 8.11439C11.2785 7.61429 11.9568 7.33334 12.6641 7.33334C13.3713 7.33334 14.0496 7.61429 14.5497 8.11439C15.0498 8.61448 15.3307 9.29276 15.3307 10C15.3307 10.7072 15.0498 11.3855 14.5497 11.8856C14.0496 12.3857 13.3713 12.6667 12.6641 12.6667ZM1.9974 0.666672H17.9974C18.351 0.666672 18.6902 0.807148 18.9402 1.0572C19.1903 1.30724 19.3307 1.64638 19.3307 2.00001V16.6667C19.3307 17.0203 19.1903 17.3594 18.9402 17.6095C18.6902 17.8595 18.351 18 17.9974 18H1.9974C1.64377 18 1.30464 17.8595 1.05459 17.6095C0.804538 17.3594 0.664063 17.0203 0.664062 16.6667V2.00001C0.664062 1.64638 0.804538 1.30724 1.05459 1.0572C1.30464 0.807148 1.64377 0.666672 1.9974 0.666672Z" stroke="currentColor" stroke-width="1.33333"/>
</g>
<defs>
<clipPath id="clip0_2877_34378">
<rect width="20" height="20" fill="white"/>
</clipPath>
</defs>
</svg>
