<svg viewBox="0 0 18 20" fill="none" xmlns="http://www.w3.org/2000/svg">
<path d="M1.51355 20C1.24833 20 0.99398 19.8946 0.806443 19.7071C0.618907 19.5196 0.51355 19.2652 0.51355 19V17C0.51355 16.7348 0.618907 16.4804 0.806443 16.2929C0.99398 16.1054 1.24833 16 1.51355 16C1.77877 16 2.03312 16.1054 2.22066 16.2929C2.40819 16.4804 2.51355 16.7348 2.51355 17V19C2.51355 19.2652 2.40819 19.5196 2.22066 19.7071C2.03312 19.8946 1.77877 20 1.51355 20ZM6.51355 20C6.24833 20 5.99398 19.8946 5.80644 19.7071C5.61891 19.5196 5.51355 19.2652 5.51355 19V13C5.51355 12.7348 5.61891 12.4804 5.80644 12.2929C5.99398 12.1054 6.24833 12 6.51355 12C6.77877 12 7.03312 12.1054 7.22066 12.2929C7.40819 12.4804 7.51355 12.7348 7.51355 13V19C7.51355 19.2652 7.40819 19.5196 7.22066 19.7071C7.03312 19.8946 6.77877 20 6.51355 20ZM11.5135 20C11.2483 20 10.994 19.8946 10.8064 19.7071C10.6189 19.5196 10.5135 19.2652 10.5135 19V8C10.5135 7.73478 10.6189 7.48043 10.8064 7.29289C10.994 7.10536 11.2483 7 11.5135 7C11.7788 7 12.0331 7.10536 12.2207 7.29289C12.4082 7.48043 12.5135 7.73478 12.5135 8V19C12.5135 19.2652 12.4082 19.5196 12.2207 19.7071C12.0331 19.8946 11.7788 20 11.5135 20ZM16.5135 20C16.2483 20 15.994 19.8946 15.8064 19.7071C15.6189 19.5196 15.5136 19.2652 15.5136 19V1C15.5136 0.734783 15.6189 0.48043 15.8064 0.292893C15.994 0.105357 16.2483 0 16.5135 0C16.7788 0 17.0331 0.105357 17.2207 0.292893C17.4082 0.48043 17.5135 0.734783 17.5135 1V19C17.5135 19.2652 17.4082 19.5196 17.2207 19.7071C17.0331 19.8946 16.7788 20 16.5135 20Z" fill="currentColor"/>
</svg>
