<svg width="20" height="20" viewBox="0 0 20 20" fill="none" xmlns="http://www.w3.org/2000/svg">
<path d="M9.9974 1.66666C5.4024 1.66666 1.66406 5.40499 1.66406 9.99999V13.4525C1.66406 14.3058 2.41156 15 3.33073 15H4.16406C4.38508 15 4.59704 14.9122 4.75332 14.7559C4.9096 14.5996 4.9974 14.3877 4.9974 14.1667V9.88082C4.9974 9.65981 4.9096 9.44785 4.75332 9.29157C4.59704 9.13529 4.38508 9.04749 4.16406 9.04749H3.4074C3.87073 5.82249 6.64573 3.33332 9.9974 3.33332C13.3491 3.33332 16.1241 5.82249 16.5874 9.04749H15.8307C15.6097 9.04749 15.3978 9.13529 15.2415 9.29157C15.0852 9.44785 14.9974 9.65981 14.9974 9.88082V15C14.9974 15.9192 14.2499 16.6667 13.3307 16.6667H11.6641V15.8333H8.33073V18.3333H13.3307C15.1691 18.3333 16.6641 16.8383 16.6641 15C17.5832 15 18.3307 14.3058 18.3307 13.4525V9.99999C18.3307 5.40499 14.5924 1.66666 9.9974 1.66666Z" fill="currentColor"/>
</svg>
