<svg width="20" height="20" viewBox="0 0 20 20" fill="none" xmlns="http://www.w3.org/2000/svg">
<path d="M10.003 19C8.759 19 7.589 18.764 6.493 18.292C5.39767 17.8193 4.44467 17.178 3.634 16.368C2.82333 15.558 2.18167 14.606 1.709 13.512C1.23633 12.418 1 11.2483 1 10.003C1 8.75767 1.23633 7.58767 1.709 6.493C2.181 5.39767 2.82133 4.44467 3.63 3.634C4.43867 2.82333 5.391 2.18167 6.487 1.709C7.583 1.23633 8.753 1 9.997 1C11.241 1 12.411 1.23633 13.507 1.709C14.6023 2.181 15.5553 2.82167 16.366 3.631C17.1767 4.44033 17.8183 5.39267 18.291 6.488C18.7637 7.58333 19 8.753 19 9.997C19 11.241 18.764 12.411 18.292 13.507C17.82 14.603 17.1787 15.556 16.368 16.366C15.5573 17.176 14.6053 17.8177 13.512 18.291C12.4187 18.7643 11.249 19.0007 10.003 19ZM10 18C12.2333 18 14.125 17.225 15.675 15.675C17.225 14.125 18 12.2333 18 10C18 7.76667 17.225 5.875 15.675 4.325C14.125 2.775 12.2333 2 10 2C7.76667 2 5.875 2.775 4.325 4.325C2.775 5.875 2 7.76667 2 10C2 12.2333 2.775 14.125 4.325 15.675C5.875 17.225 7.76667 18 10 18ZM10.005 15C8.617 15 7.436 14.5143 6.462 13.543C5.488 12.5717 5.00067 11.3923 5 10.005C4.99933 8.61767 5.485 7.436 6.457 6.46C7.429 5.484 8.60833 4.99733 9.995 5C11.3817 5.00267 12.563 5.48833 13.539 6.457C14.515 7.42567 15.002 8.605 15 9.995C14.998 11.385 14.5123 12.5663 13.543 13.539C12.5737 14.5117 11.3943 14.9987 10.005 15ZM10 14C11.1 14 12.0417 13.6083 12.825 12.825C13.6083 12.0417 14 11.1 14 10C14 8.9 13.6083 7.95833 12.825 7.175C12.0417 6.39167 11.1 6 10 6C8.9 6 7.95833 6.39167 7.175 7.175C6.39167 7.95833 6 8.9 6 10C6 11.1 6.39167 12.0417 7.175 12.825C7.95833 13.6083 8.9 14 10 14ZM10 11C9.732 11 9.49833 10.9003 9.299 10.701C9.09967 10.5017 9 10.268 9 10C9 9.732 9.09967 9.49833 9.299 9.299C9.49833 9.09967 9.732 9 10 9C10.268 9 10.5017 9.09967 10.701 9.299C10.9003 9.49833 11 9.732 11 10C11 10.268 10.9003 10.5017 10.701 10.701C10.5017 10.9003 10.268 11 10 11Z" fill="currentColor"/>
</svg>
