<svg width="25" height="25" viewBox="0 0 25 25" fill="none" xmlns="http://www.w3.org/2000/svg">
<path fill-rule="evenodd" clip-rule="evenodd" d="M3.58503 20.5906C4.69933 21.7049 6.0222 22.5888 7.47811 23.1919C8.93402 23.7949 10.4945 24.1053 12.0703 24.1053C13.6462 24.1053 15.2066 23.7949 16.6625 23.1919C18.1184 22.5888 19.4413 21.7049 20.5556 20.5906C21.6699 19.4763 22.5538 18.1534 23.1569 16.6975C23.7599 15.2416 24.0703 13.6812 24.0703 12.1053C24.0703 10.5295 23.7599 8.96904 23.1569 7.51313C22.5538 6.05722 21.6699 4.73435 20.5556 3.62005C18.3052 1.36961 15.2529 0.105331 12.0703 0.105331C8.88772 0.105331 5.83547 1.36961 3.58503 3.62005C1.33459 5.87049 0.0703125 8.92273 0.0703125 12.1053C0.0703125 15.2879 1.33459 18.3402 3.58503 20.5906ZM6.47968 19.5813C8.27733 20.9267 10.4997 21.5791 12.7394 21.4188C14.979 21.2585 17.0858 20.2963 18.6736 18.7086C20.2613 17.1209 21.2235 15.014 21.3838 12.7744C21.5441 10.5347 20.8917 8.31235 19.5463 6.5147L15.841 10.22C15.5895 10.4629 15.2527 10.5973 14.9031 10.5942C14.5535 10.5912 14.2191 10.451 13.9719 10.2038C13.7247 9.95656 13.5844 9.62214 13.5814 9.27255C13.5784 8.92296 13.7128 8.58616 13.9556 8.33469L17.6596 4.62938C15.8616 3.28754 13.6404 2.63807 11.4027 2.79985C9.16502 2.96162 7.0604 3.92381 5.47405 5.51032C3.88771 7.09683 2.92573 9.20154 2.76419 11.4393C2.60265 13.677 3.25234 15.8981 4.59436 17.696L8.29967 13.9907C8.55114 13.7478 8.88794 13.6134 9.23753 13.6164C9.58713 13.6195 9.92154 13.7597 10.1687 14.0069C10.416 14.2541 10.5562 14.5885 10.5592 14.9381C10.5623 15.2877 10.4279 15.6245 10.185 15.876L6.47968 19.5813Z" fill="currentColor"/>
</svg>
