<svg width="16" height="17" viewBox="0 0 16 17" fill="none" xmlns="http://www.w3.org/2000/svg">
<path d="M14.4325 13.75C13.4806 12.1044 12.0138 10.9244 10.3019 10.365C11.1486 9.86092 11.8065 9.09281 12.1745 8.17863C12.5425 7.26445 12.6002 6.25476 12.3388 5.3046C12.0774 4.35445 11.5113 3.51638 10.7275 2.91908C9.94367 2.32179 8.98546 1.99831 8 1.99831C7.01454 1.99831 6.05633 2.32179 5.27252 2.91908C4.4887 3.51638 3.92262 4.35445 3.66121 5.3046C3.3998 6.25476 3.45752 7.26445 3.82549 8.17863C4.19347 9.09281 4.85135 9.86092 5.69812 10.365C3.98625 10.9238 2.51937 12.1038 1.5675 13.75C1.53259 13.8069 1.50944 13.8703 1.4994 13.9363C1.48937 14.0023 1.49266 14.0696 1.50908 14.1343C1.52549 14.1991 1.55471 14.2598 1.59499 14.3131C1.63528 14.3663 1.68582 14.411 1.74364 14.4444C1.80146 14.4778 1.86538 14.4992 1.93163 14.5075C1.99788 14.5158 2.06512 14.5108 2.12939 14.4927C2.19365 14.4745 2.25364 14.4437 2.3058 14.4021C2.35797 14.3604 2.40126 14.3087 2.43312 14.25C3.61062 12.215 5.69187 11 8 11C10.3081 11 12.3894 12.215 13.5669 14.25C13.5987 14.3087 13.642 14.3604 13.6942 14.4021C13.7464 14.4437 13.8063 14.4745 13.8706 14.4927C13.9349 14.5108 14.0021 14.5158 14.0684 14.5075C14.1346 14.4992 14.1985 14.4778 14.2564 14.4444C14.3142 14.411 14.3647 14.3663 14.405 14.3131C14.4453 14.2598 14.4745 14.1991 14.4909 14.1343C14.5073 14.0696 14.5106 14.0023 14.5006 13.9363C14.4906 13.8703 14.4674 13.8069 14.4325 13.75ZM4.5 6.50001C4.5 5.80777 4.70527 5.13108 5.08986 4.55551C5.47444 3.97994 6.02107 3.53133 6.66061 3.26643C7.30015 3.00152 8.00388 2.93221 8.68282 3.06726C9.36175 3.20231 9.98539 3.53565 10.4749 4.02513C10.9644 4.51462 11.2977 5.13826 11.4327 5.81719C11.5678 6.49612 11.4985 7.19986 11.2336 7.8394C10.9687 8.47894 10.5201 9.02557 9.9445 9.41015C9.36892 9.79474 8.69223 10 8 10C7.07205 9.99901 6.18238 9.62995 5.52622 8.97378C4.87006 8.31762 4.50099 7.42796 4.5 6.50001Z" fill="currentColor"/>
</svg>
