<svg width="20" height="20" viewBox="0 0 20 20" fill="none" xmlns="http://www.w3.org/2000/svg">
<path d="M15.324 12.8214L12.4545 10.0357L15.324 7.25L16 7.90464L13.8065 10.0357L16 12.1668L15.324 12.8214ZM12.4545 17H11.5091V14.6786C11.5091 14.0629 11.2601 13.4724 10.8168 13.0371C10.3735 12.6017 9.77233 12.3571 9.14545 12.3571H6.30909C5.68222 12.3571 5.08102 12.6017 4.63775 13.0371C4.19448 13.4724 3.94545 14.0629 3.94545 14.6786V17H3V14.6786C3 13.8166 3.34864 12.99 3.96921 12.3805C4.58979 11.771 5.43147 11.4286 6.30909 11.4286H9.14545C10.0231 11.4286 10.8648 11.771 11.4853 12.3805C12.1059 12.99 12.4545 13.8166 12.4545 14.6786V17ZM7.72727 4.92857C8.19476 4.92857 8.65174 5.06472 9.04044 5.3198C9.42914 5.57488 9.73209 5.93744 9.91099 6.36163C10.0899 6.78581 10.1367 7.25258 10.0455 7.70289C9.95429 8.1532 9.72918 8.56684 9.39862 8.8915C9.06806 9.21616 8.6469 9.43725 8.1884 9.52682C7.72989 9.6164 7.25465 9.57042 6.82275 9.39472C6.39085 9.21902 6.0217 8.92147 5.76198 8.53972C5.50226 8.15796 5.36364 7.70914 5.36364 7.25C5.36364 6.63432 5.61266 6.04385 6.05593 5.6085C6.4992 5.17315 7.1004 4.92857 7.72727 4.92857ZM7.72727 4C7.0728 4 6.43302 4.19061 5.88884 4.54772C5.34466 4.90484 4.92053 5.41242 4.67007 6.00628C4.41961 6.60014 4.35408 7.25361 4.48177 7.88404C4.60945 8.51448 4.92461 9.09358 5.38739 9.5481C5.85018 10.0026 6.4398 10.3122 7.0817 10.4376C7.7236 10.563 8.38895 10.4986 8.99361 10.2526C9.59826 10.0066 10.1151 9.59006 10.4787 9.0556C10.8423 8.52114 11.0364 7.89279 11.0364 7.25C11.0364 6.38805 10.6877 5.5614 10.0672 4.9519C9.44658 4.34241 8.6049 4 7.72727 4Z" fill="currentColor" fill-opacity="0.75"/>
<path d="M15.2195 12.9291L15.3239 13.0304L15.4283 12.9292L16.1044 12.2745L16.2154 12.167L16.1045 12.0592L14.0218 10.0357L16.1045 8.01223L16.2154 7.90447L16.1044 7.79689L15.4283 7.14225L15.3239 7.04107L15.2195 7.14238L12.3501 9.92809L12.2392 10.0357L12.3501 10.1433L15.2195 12.9291ZM12.4545 17.15H12.6045V17V14.6786C12.6045 13.776 12.2394 12.9109 11.5904 12.2735C10.9415 11.6361 10.062 11.2786 9.14545 11.2786H6.30909C5.39255 11.2786 4.51301 11.6361 3.8641 12.2735C3.21511 12.9109 2.85 13.776 2.85 14.6786V17V17.15H3H3.94545H4.09545V17V14.6786C4.09545 14.1036 4.32801 13.5515 4.74285 13.1441C5.15779 12.7366 5.72113 12.5071 6.30909 12.5071H9.14545C9.73341 12.5071 10.2968 12.7366 10.7117 13.1441C11.1265 13.5515 11.3591 14.1036 11.3591 14.6786V17V17.15H11.5091H12.4545ZM7.72727 5.07857C8.16568 5.07857 8.59403 5.20627 8.95814 5.44521C9.32222 5.68413 9.60557 6.02344 9.77278 6.41992C9.93997 6.81636 9.98368 7.25244 9.89848 7.67311C9.81327 8.09381 9.60289 8.48062 9.29351 8.78448C8.9841 9.08837 8.58955 9.29562 8.15963 9.37961C7.7297 9.4636 7.2841 9.42047 6.87927 9.25578C6.47447 9.0911 6.12892 8.8124 5.886 8.45534C5.64311 8.09832 5.51364 7.67886 5.51364 7.25C5.51364 6.67498 5.74619 6.12296 6.16104 5.71552C6.57597 5.30799 7.13932 5.07857 7.72727 5.07857ZM7.72727 3.85C7.04372 3.85 6.37531 4.04906 5.80654 4.42232C5.23774 4.79559 4.794 5.32642 4.53186 5.94799C4.2697 6.56959 4.20107 7.25375 4.33475 7.91382C4.46843 8.57387 4.79833 9.1798 5.28229 9.65511C5.76622 10.1304 6.38246 10.4538 7.05294 10.5848C7.72341 10.7158 8.4184 10.6485 9.05013 10.3916C9.68189 10.1345 10.2223 9.69914 10.6027 9.13998C10.9831 8.58079 11.1864 7.92306 11.1864 7.25C11.1864 6.34738 10.8213 5.48229 10.1723 4.84489C9.52335 4.20757 8.64382 3.85 7.72727 3.85Z" stroke="currentColor" stroke-opacity="0.75" stroke-width="0.3"/>
</svg>
