<svg width="18" height="19" viewBox="0 0 18 19" fill="none" xmlns="http://www.w3.org/2000/svg">
<path d="M15.8948 7.856C12.087 4.04825 5.91376 4.04825 2.10601 7.856L1.57576 8.38625L0.515259 7.325L1.04551 6.79475C5.43901 2.402 12.5618 2.402 16.9553 6.79475L17.4855 7.325L16.425 8.38625L15.8948 7.856ZM12.447 11.303C11.5328 10.3888 10.2929 9.87529 9.00001 9.87529C7.70715 9.87529 6.46724 10.3888 5.55301 11.303L5.02276 11.8332L3.96226 10.7727L4.49251 10.2425C5.68803 9.04714 7.3094 8.37561 9.00001 8.37561C10.6906 8.37561 12.312 9.04714 13.5075 10.2425L14.0385 10.7727L12.9773 11.8332L12.447 11.303ZM7.93951 13.6895C8.0788 13.5501 8.24419 13.4396 8.42622 13.3642C8.60825 13.2888 8.80335 13.2499 9.00038 13.2499C9.19742 13.2499 9.39252 13.2888 9.57455 13.3642C9.75658 13.4396 9.92196 13.5501 10.0613 13.6895L10.5915 14.2197L9.00001 15.8105L7.41001 14.2197L7.93951 13.6895Z" fill="currentColor"/>
</svg>
