<svg width="500" height="500" viewBox="0 0 500 500" fill="none" xmlns="http://www.w3.org/2000/svg">
<path d="M108 171C113.558 174.146 117.796 178.5 122.284 182.994C123.093 183.796 123.902 184.598 124.735 185.425C127.398 188.068 130.053 190.719 132.707 193.371C134.557 195.214 136.407 197.058 138.257 198.901C142.128 202.759 145.995 206.623 149.859 210.489C154.324 214.955 158.8 219.409 163.281 223.859C167.599 228.147 171.905 232.447 176.208 236.75C178.037 238.578 179.87 240.402 181.706 242.222C184.268 244.764 186.817 247.319 189.363 249.877C190.126 250.629 190.889 251.38 191.675 252.155C192.366 252.855 193.057 253.554 193.769 254.275C194.372 254.877 194.976 255.479 195.597 256.1C197.315 258.427 197.764 260.129 198 263C196.438 265.813 196.438 265.813 194 268C191.326 268.573 191.326 268.573 188 268C185.124 266 182.775 263.532 180.342 261.023C179.229 259.912 179.229 259.912 178.093 258.777C175.644 256.324 173.217 253.85 170.789 251.375C169.095 249.67 167.4 247.966 165.703 246.263C161.241 241.778 156.797 237.276 152.357 232.769C147.823 228.174 143.272 223.596 138.723 219.016C129.798 210.027 120.893 201.02 112 192C111.998 192.647 111.995 193.293 111.993 193.959C111.934 209.683 111.858 225.406 111.764 241.13C111.719 248.733 111.68 256.337 111.654 263.941C111.631 270.567 111.597 277.193 111.551 283.82C111.527 287.329 111.509 290.839 111.502 294.348C111.495 298.263 111.465 302.178 111.432 306.093C111.434 307.26 111.435 308.428 111.437 309.631C111.424 310.695 111.412 311.759 111.399 312.856C111.394 313.782 111.39 314.709 111.385 315.663C111 318 111 318 109.721 319.822C107.223 321.532 104.95 321.082 102.035 320.812C98.9834 319.594 97.8236 317.693 96 315C95.4966 312.244 95.4966 312.244 95.4921 309.193C95.4808 308.033 95.4695 306.872 95.4579 305.676C95.466 304.411 95.4741 303.147 95.4824 301.844C95.477 300.492 95.4699 299.139 95.4612 297.787C95.443 294.122 95.45 290.457 95.4627 286.791C95.4728 282.953 95.4634 279.114 95.4572 275.275C95.4499 268.829 95.4595 262.384 95.4785 255.938C95.5003 248.489 95.4932 241.04 95.4712 233.591C95.4531 227.192 95.4505 220.793 95.461 214.394C95.4672 210.573 95.4681 206.753 95.4548 202.933C95.4433 199.341 95.4513 195.749 95.4744 192.157C95.4822 190.213 95.4703 188.269 95.4579 186.324C95.4692 185.163 95.4804 184.003 95.4921 182.807C95.4936 181.8 95.4951 180.794 95.4966 179.756C96.1374 176.247 97.5657 174.558 100 172C102.866 170.567 104.813 170.694 108 171Z" fill="white"/>
<path d="M102.239 106.09C106.007 107.332 108.235 109.718 110.93 112.504C111.483 113.061 112.037 113.617 112.607 114.191C114.372 115.972 116.123 117.767 117.875 119.562C119.045 120.744 120.215 121.924 121.387 123.104C122.527 124.257 123.666 125.411 124.805 126.566C125.322 127.091 125.838 127.615 126.371 128.155C129.146 131.001 131.811 133.91 134.409 136.92C137.983 141.038 141.777 144.888 145.656 148.719C146.362 149.421 147.068 150.123 147.796 150.847C150.028 153.067 152.264 155.284 154.5 157.5C157.451 160.424 160.398 163.352 163.344 166.281C164.007 166.937 164.671 167.592 165.355 168.267C168.497 171.393 171.527 174.559 174.418 177.918C178.384 182.512 182.657 186.764 186.969 191.031C187.808 191.867 188.647 192.702 189.512 193.563C192.172 196.211 194.836 198.856 197.5 201.5C201.013 204.987 204.523 208.477 208.031 211.969C208.826 212.755 209.621 213.542 210.44 214.353C214.55 218.444 218.458 222.624 222.24 227.018C225.445 230.627 228.901 233.983 232.34 237.367C233.912 238.927 235.484 240.487 237.057 242.047C239.513 244.478 241.971 246.908 244.431 249.335C246.822 251.696 249.206 254.062 251.59 256.43C252.705 257.525 252.705 257.525 253.843 258.642C254.86 259.654 254.86 259.654 255.898 260.687C256.499 261.28 257.1 261.873 257.718 262.485C259 264 259 264 259 266C259.66 266 260.32 266 261 266C262.434 267.456 262.434 267.456 264.105 269.477C267.962 274.008 272.083 278.193 276.312 282.375C277.085 283.144 277.858 283.913 278.654 284.705C281.1 287.139 283.55 289.57 286 292C289.232 295.205 292.461 298.414 295.688 301.625C296.782 302.707 296.782 302.707 297.898 303.81C301.928 307.822 305.774 311.927 309.468 316.251C310.97 318.029 310.97 318.029 312.71 319.573C313.136 320.044 313.561 320.515 314 321C313.739 324.48 312.966 326.051 311 329C308.402 329.688 308.402 329.688 305 329C301.862 326.646 299.245 323.851 296.562 321C295.837 320.256 295.112 319.512 294.365 318.746C291.053 315.324 287.854 311.835 284.746 308.228C280.976 303.906 276.966 299.872 272.879 295.852C271.352 294.337 269.825 292.823 268.299 291.309C265.915 288.95 263.53 286.593 261.142 284.238C258.821 281.947 256.506 279.65 254.191 277.352C253.109 276.289 253.109 276.289 252.004 275.205C251.017 274.223 251.017 274.223 250.01 273.221C249.427 272.646 248.844 272.07 248.244 271.477C247 270 247 270 247 268C246.34 268 245.68 268 245 268C243.581 266.56 243.581 266.56 241.922 264.551C237.924 259.853 233.633 255.524 229.25 251.188C228.433 250.374 227.616 249.561 226.774 248.723C224.185 246.146 221.593 243.573 219 241C215.58 237.607 212.164 234.211 208.75 230.812C207.59 229.665 207.59 229.665 206.407 228.495C202.342 224.448 198.48 220.309 194.738 215.963C191.684 212.514 188.401 209.299 185.125 206.062C184.397 205.338 183.669 204.614 182.918 203.867C180.615 201.576 178.308 199.287 176 197C172.955 193.982 169.914 190.961 166.875 187.937C165.847 186.922 165.847 186.922 164.797 185.885C161.6 182.704 158.511 179.487 155.568 176.068C151.608 171.478 147.339 167.231 143.031 162.969C142.192 162.133 141.353 161.298 140.488 160.437C137.828 157.789 135.164 155.144 132.5 152.5C128.987 149.013 125.477 145.523 121.969 142.031C121.174 141.245 120.379 140.458 119.56 139.647C115.363 135.469 111.338 131.214 107.5 126.702C104.552 123.357 101.159 120.466 97.8438 117.492C96 115 96 115 96.1406 111.816C97.2701 108.115 98.0735 105.923 102.239 106.09Z" fill="white"/>
<path d="M316 117C318.676 119.676 318.258 120.984 318.274 124.725C318.284 125.944 318.294 127.162 318.304 128.417C318.305 129.775 318.306 131.132 318.306 132.49C318.314 133.914 318.322 135.338 318.332 136.762C318.354 140.636 318.362 144.51 318.367 148.384C318.371 150.802 318.377 153.221 318.384 155.639C318.409 164.072 318.422 172.504 318.426 180.937C318.429 188.805 318.459 196.674 318.501 204.542C318.536 211.291 318.551 218.04 318.552 224.789C318.553 228.823 318.561 232.857 318.59 236.891C318.616 240.684 318.618 244.476 318.602 248.269C318.6 249.663 318.607 251.056 318.623 252.45C318.643 254.349 318.63 256.249 318.615 258.148C318.617 259.212 318.619 260.276 318.621 261.372C318 264 318 264 315.692 265.842C312.245 267.325 309.713 267.42 306 267C303.806 263.708 303.745 262.717 303.722 258.894C303.71 257.838 303.699 256.782 303.688 255.694C303.686 254.536 303.683 253.378 303.681 252.185C303.671 250.965 303.661 249.746 303.651 248.489C303.625 245.144 303.608 241.8 303.595 238.455C303.58 234.959 303.553 231.464 303.527 227.969C303.48 221.349 303.444 214.73 303.411 208.111C303.372 200.575 303.323 193.04 303.273 185.504C303.169 170.003 303.08 154.502 303 139C301.776 140.237 301.776 140.237 300.528 141.499C292.844 149.264 285.149 157.019 277.443 164.764C273.482 168.746 269.524 172.732 265.575 176.726C261.765 180.58 257.945 184.424 254.118 188.261C252.659 189.728 251.204 191.198 249.752 192.671C247.719 194.733 245.674 196.782 243.626 198.828C242.727 199.748 242.727 199.748 241.811 200.687C238.694 203.773 236.598 205.748 232 206C229.211 203.211 228.013 201.809 227.948 197.794C229.383 192.617 232.113 190.052 235.887 186.352C236.968 185.258 236.968 185.258 238.07 184.142C240.451 181.74 242.854 179.36 245.258 176.98C246.922 175.315 248.585 173.648 250.248 171.98C253.734 168.49 257.23 165.01 260.734 161.538C265.222 157.09 269.685 152.618 274.141 148.138C277.571 144.693 281.014 141.26 284.461 137.831C286.111 136.187 287.758 134.539 289.401 132.887C291.701 130.579 294.016 128.288 296.336 126.001C297.348 124.976 297.348 124.976 298.381 123.931C303.548 118.889 308.485 116.141 316 117Z" fill="white"/>
<path d="M341.601 307.757C342.751 307.755 343.902 307.753 345.088 307.751C348.887 307.748 352.685 307.758 356.484 307.77C359.142 307.771 361.799 307.771 364.456 307.771C370.031 307.772 375.606 307.781 381.181 307.794C387.576 307.81 393.972 307.815 400.367 307.814C406.563 307.814 412.76 307.819 418.956 307.827C421.569 307.83 424.183 307.832 426.796 307.833C438.576 307.84 450.358 307.858 462.13 308.323C463.303 308.356 463.303 308.356 464.5 308.389C466.636 308.494 466.636 308.494 470 309C472.081 312.122 472.274 312.933 472.25 316.5C472.258 317.66 472.258 317.66 472.266 318.844C472 321 472 321 470 324C467.532 324.393 467.532 324.393 464.358 324.419C463.157 324.436 461.957 324.453 460.721 324.47C459.384 324.474 458.047 324.477 456.709 324.48C455.307 324.494 453.904 324.509 452.502 324.525C448.685 324.566 444.869 324.588 441.053 324.605C437.063 324.625 433.073 324.66 429.083 324.693C422.38 324.746 415.676 324.786 408.973 324.818C401.221 324.857 393.47 324.916 385.718 324.987C379.068 325.048 372.417 325.096 365.767 325.135C361.793 325.158 357.819 325.186 353.845 325.224C350.107 325.259 346.369 325.279 342.631 325.288C340.604 325.296 338.577 325.319 336.55 325.343C335.345 325.343 334.139 325.343 332.896 325.343C331.848 325.349 330.8 325.355 329.72 325.362C326.593 324.946 325.215 324.222 323 322C322.609 319.082 322.609 319.082 322.75 315.812C322.786 314.726 322.822 313.639 322.859 312.52C322.906 311.688 322.952 310.857 323 310C329.245 307.784 335.015 307.723 341.601 307.757Z" fill="white"/>
<path d="M312 120C312.66 120 313.32 120 314 120C315.325 122.65 315.129 124.642 315.134 127.611C315.138 128.804 315.142 129.998 315.147 131.227C315.146 132.543 315.146 133.859 315.145 135.215C315.148 136.609 315.152 138.003 315.155 139.398C315.164 143.191 315.167 146.985 315.167 150.778C315.168 153.942 315.172 157.105 315.175 160.269C315.184 167.731 315.186 175.193 315.185 182.655C315.185 190.36 315.195 198.065 315.211 205.77C315.224 212.379 315.229 218.987 315.229 225.596C315.229 229.546 315.231 233.496 315.242 237.446C315.252 241.16 315.252 244.874 315.245 248.588C315.243 250.605 315.251 252.621 315.26 254.637C315.254 256.432 315.254 256.432 315.247 258.262C315.248 259.304 315.248 260.345 315.249 261.419C315 264 315 264 313 267C309.438 267.25 309.438 267.25 306 267C304.295 265.294 304.855 263.09 304.839 260.757C304.829 259.62 304.819 258.483 304.809 257.311C304.803 256.053 304.797 254.794 304.791 253.497C304.781 252.18 304.772 250.863 304.762 249.506C304.73 245.125 304.71 240.744 304.691 236.363C304.688 235.618 304.685 234.873 304.681 234.106C304.651 227.081 304.624 220.057 304.607 213.032C304.585 204.043 304.543 195.054 304.474 186.065C304.426 179.748 304.402 173.43 304.395 167.112C304.39 163.338 304.375 159.565 304.335 155.79C304.298 152.237 304.29 148.685 304.303 145.131C304.303 143.209 304.273 141.288 304.242 139.366C304.313 131.021 304.313 131.021 306.347 127.998C307.981 126.428 307.981 126.428 311 124C311.721 121.922 311.721 121.922 312 120Z" fill="white"/>
<path d="M98 108C98.33 108 98.66 108 99 108C99.1777 108.83 99.3553 109.661 99.5383 110.516C101.549 115.308 104.688 118.167 108.387 121.742C109.122 122.469 109.857 123.197 110.615 123.946C112.963 126.265 115.325 128.571 117.688 130.875C120.03 133.175 122.37 135.477 124.707 137.783C126.159 139.214 127.615 140.641 129.074 142.064C132.988 145.902 136.66 149.856 140.237 154.009C143.299 157.468 146.59 160.692 149.875 163.938C150.603 164.662 151.331 165.386 152.082 166.133C154.385 168.424 156.692 170.713 159 173C162.045 176.018 165.086 179.039 168.125 182.062C169.153 183.078 169.153 183.078 170.203 184.115C174.054 187.947 177.683 191.894 181.231 196.006C184.298 199.463 187.588 202.691 190.875 205.938C191.603 206.662 192.331 207.386 193.082 208.133C195.385 210.424 197.692 212.713 200 215C203.045 218.018 206.086 221.039 209.125 224.062C210.153 225.078 210.153 225.078 211.203 226.115C215.054 229.947 218.683 233.894 222.231 238.006C225.298 241.463 228.588 244.691 231.875 247.938C232.603 248.662 233.331 249.386 234.082 250.133C236.385 252.424 238.692 254.713 241 257C244.045 260.018 247.086 263.039 250.125 266.062C251.153 267.078 251.153 267.078 252.203 268.115C255.418 271.314 258.524 274.551 261.486 277.986C265.162 282.246 269.094 286.203 273.094 290.156C273.844 290.903 274.594 291.649 275.368 292.419C277.743 294.782 280.121 297.141 282.5 299.5C285.638 302.612 288.773 305.727 291.906 308.844C292.967 309.893 292.967 309.893 294.05 310.963C298.038 314.931 301.791 318.992 305.363 323.341C307.115 325.116 308.722 326.019 311 327C311 327.66 311 328.32 311 329C308.527 329.5 308.527 329.5 305 329C301.85 326.665 299.244 323.85 296.562 321C295.837 320.256 295.112 319.512 294.365 318.746C291.053 315.324 287.854 311.835 284.746 308.228C280.976 303.906 276.966 299.872 272.879 295.852C271.352 294.337 269.825 292.823 268.299 291.309C265.915 288.95 263.53 286.593 261.142 284.238C258.821 281.947 256.506 279.65 254.191 277.352C253.109 276.289 253.109 276.289 252.004 275.205C251.017 274.223 251.017 274.223 250.01 273.221C249.427 272.646 248.844 272.07 248.244 271.477C247 270 247 270 247 268C246.34 268 245.68 268 245 268C243.581 266.56 243.581 266.56 241.922 264.551C237.924 259.853 233.633 255.524 229.25 251.188C228.433 250.374 227.616 249.561 226.774 248.723C224.185 246.146 221.593 243.573 219 241C215.58 237.607 212.164 234.211 208.75 230.812C207.59 229.665 207.59 229.665 206.407 228.495C202.342 224.448 198.48 220.309 194.738 215.963C191.684 212.514 188.401 209.299 185.125 206.062C184.397 205.338 183.669 204.614 182.918 203.867C180.615 201.576 178.308 199.287 176 197C172.955 193.982 169.914 190.961 166.875 187.938C165.847 186.922 165.847 186.922 164.797 185.885C161.6 182.704 158.511 179.487 155.568 176.068C151.608 171.478 147.339 167.231 143.031 162.969C142.192 162.133 141.353 161.298 140.488 160.437C137.828 157.789 135.164 155.144 132.5 152.5C128.987 149.013 125.477 145.523 121.969 142.031C121.174 141.245 120.379 140.458 119.56 139.647C115.363 135.469 111.338 131.214 107.5 126.702C104.552 123.357 101.159 120.466 97.8438 117.492C96 115 96 115 96.1563 111.758C97 109 97 109 98 108Z" fill="#F8F8F8"/>
<path d="M341.601 307.757C342.751 307.755 343.902 307.753 345.088 307.751C348.887 307.748 352.685 307.758 356.484 307.77C359.142 307.771 361.799 307.771 364.456 307.771C370.031 307.772 375.606 307.781 381.181 307.794C387.576 307.81 393.972 307.815 400.367 307.814C406.563 307.814 412.76 307.819 418.956 307.827C421.569 307.83 424.183 307.832 426.796 307.833C438.576 307.84 450.358 307.858 462.13 308.323C463.303 308.356 463.303 308.356 464.5 308.389C466.636 308.494 466.636 308.494 470 309C472 312 472 312 471.625 314.687C471.419 315.451 471.212 316.214 471 317C470.67 316.34 470.34 315.68 470 315C421.82 315 373.64 315 324 315C323.67 315.66 323.34 316.32 323 317C323 314.69 323 312.38 323 310C329.245 307.784 335.015 307.723 341.601 307.757Z" fill="#F8F8F8"/>
<path d="M100 172C100.66 172.33 101.32 172.66 102 173C101.67 173.33 101.34 173.66 101 174C100.901 175.841 100.874 177.685 100.873 179.529C100.87 180.729 100.867 181.929 100.864 183.166C100.866 184.508 100.868 185.851 100.871 187.193C100.869 188.597 100.867 190.001 100.865 191.405C100.861 195.23 100.863 199.054 100.866 202.878C100.868 206.874 100.866 210.87 100.864 214.866C100.862 221.58 100.865 228.293 100.87 235.007C100.875 242.774 100.873 250.54 100.868 258.307C100.863 264.967 100.863 271.627 100.865 278.287C100.867 282.268 100.867 286.249 100.864 290.23C100.861 293.975 100.863 297.719 100.869 301.464C100.87 302.839 100.87 304.215 100.867 305.591C100.865 307.466 100.869 309.342 100.873 311.217C100.873 312.268 100.874 313.318 100.874 314.4C100.888 317.115 100.888 317.115 102 320C98.8388 318.63 98.0073 318.011 96 315C95.7427 312.49 95.7427 312.49 95.7326 309.434C95.724 308.276 95.7155 307.118 95.7067 305.925C95.7076 304.653 95.7085 303.381 95.7095 302.071C95.7035 300.719 95.6967 299.367 95.6891 298.015C95.6714 294.341 95.6668 290.668 95.6655 286.994C95.6636 283.928 95.6562 280.861 95.6491 277.795C95.6329 270.559 95.628 263.324 95.6294 256.088C95.6306 248.625 95.6095 241.162 95.5779 233.698C95.5518 227.29 95.541 220.883 95.5423 214.475C95.5428 210.648 95.5371 206.821 95.5159 202.994C95.4966 199.394 95.4964 195.794 95.511 192.194C95.5141 190.245 95.4974 188.296 95.4801 186.346C95.4885 185.183 95.4969 184.019 95.5055 182.82C95.5044 181.811 95.5033 180.802 95.5022 179.762C96.1291 176.283 97.6345 174.566 100 172Z" fill="#F8F8F8"/>
<path d="M305 131C305 174.89 305 218.78 305 264C304.67 264 304.34 264 304 264C303.67 222.75 303.34 181.5 303 139C281.494 160.665 281.494 160.665 260.009 182.351C255.842 186.536 255.842 186.536 253.889 188.493C252.527 189.861 251.169 191.233 249.814 192.608C247.761 194.691 245.695 196.761 243.626 198.828C243.026 199.443 242.426 200.057 241.807 200.691C238.692 203.775 236.596 205.748 232 206C231.01 204.35 230.02 202.7 229 201C229.681 201.133 230.362 201.265 231.064 201.402C235.655 200.774 237.836 197.812 240.978 194.574C241.659 193.891 242.341 193.209 243.044 192.505C245.296 190.244 247.531 187.966 249.766 185.688C251.324 184.117 252.884 182.548 254.445 180.979C258.553 176.847 262.645 172.701 266.734 168.551C272.51 162.695 278.305 156.859 284.098 151.021C287.184 147.91 290.265 144.793 293.342 141.673C294.742 140.257 296.141 138.841 297.54 137.426C298.183 136.771 298.826 136.117 299.489 135.442C303.887 131 303.887 131 305 131Z" fill="#F8F8F8"/>
<path d="M316 117C318.679 119.679 318.251 120.986 318.254 124.732C318.262 126.562 318.262 126.562 318.271 128.429C318.267 129.788 318.263 131.147 318.259 132.506C318.261 133.931 318.265 135.357 318.269 136.783C318.279 140.661 318.275 144.539 318.269 148.417C318.264 152.469 318.268 156.521 318.271 160.574C318.275 167.38 318.27 174.186 318.261 180.992C318.25 188.868 318.253 196.744 318.264 204.621C318.273 211.375 318.275 218.129 318.27 224.883C318.266 228.921 318.266 232.959 318.273 236.996C318.278 240.792 318.274 244.587 318.263 248.382C318.26 249.778 318.261 251.173 318.265 252.569C318.271 254.469 318.263 256.369 318.254 258.268C318.253 259.333 318.252 260.398 318.252 261.495C318 264 318 264 316 266C315.01 265.67 314.02 265.34 313 265C313.33 264.67 313.66 264.34 314 264C314.099 262.17 314.126 260.335 314.127 258.502C314.13 257.309 314.133 256.116 314.136 254.886C314.134 253.552 314.132 252.217 314.129 250.883C314.131 249.487 314.133 248.091 314.135 246.695C314.139 242.894 314.137 239.092 314.134 235.291C314.132 231.32 314.134 227.349 314.136 223.378C314.138 216.707 314.135 210.036 314.13 203.365C314.125 195.645 314.127 187.925 314.132 180.205C314.137 173.587 314.137 166.968 314.135 160.35C314.133 156.393 314.133 152.436 314.136 148.479C314.139 144.758 314.137 141.038 314.131 137.317C314.129 135.294 314.132 133.272 314.136 131.249C314.133 130.053 314.13 128.857 314.127 127.625C314.126 126.059 314.126 126.059 314.126 124.461C314.165 121.995 314.165 121.995 313 120C310.678 119.593 308.343 119.256 306 119C306 118.67 306 118.34 306 118C309.394 117.224 312.516 116.718 316 117Z" fill="#F8F8F8"/>
<path d="M110 186C117.874 192.749 117.874 192.749 120.579 195.486C121.196 196.107 121.813 196.728 122.448 197.368C123.098 198.028 123.747 198.687 124.417 199.366C125.122 200.078 125.827 200.789 126.553 201.522C128.072 203.055 129.59 204.588 131.107 206.123C133.508 208.551 135.913 210.975 138.321 213.397C145.16 220.279 151.997 227.164 158.818 234.065C163 238.295 167.191 242.515 171.389 246.729C172.985 248.335 174.577 249.945 176.166 251.558C178.382 253.808 180.611 256.046 182.842 258.281C183.496 258.95 184.15 259.62 184.823 260.31C189.132 264.656 189.132 264.656 195 266C194.67 266.66 194.34 267.32 194 268C190.954 268.527 188.837 268.575 186.232 266.786C184.191 264.931 182.262 263.003 180.342 261.023C179.588 260.27 178.834 259.517 178.057 258.741C175.62 256.299 173.205 253.838 170.789 251.375C169.287 249.865 167.784 248.355 166.28 246.848C160.712 241.248 155.17 235.622 149.625 230C137.209 217.46 124.792 204.92 112 192C111.67 233.58 111.34 275.16 111 318C110.67 318 110.34 318 110 318C110 274.44 110 230.88 110 186Z" fill="#F8F8F8"/>
<path d="M99 336C101.387 336.09 101.387 336.09 104 337C105.582 339.504 105.582 339.504 106.812 342.562C107.231 343.574 107.65 344.586 108.082 345.629C108.385 346.411 108.688 347.194 109 348C111.075 345.36 112.727 342.772 114.188 339.75C114.532 339.044 114.876 338.337 115.23 337.609C115.611 336.813 115.611 336.813 116 336C118.475 336.495 118.475 336.495 121 337C121 343.93 121 350.86 121 358C119.68 358.33 118.36 358.66 117 359C116.34 356.69 115.68 354.38 115 352C113.68 353.65 112.36 355.3 111 357C106.338 355.502 105.134 352.115 103 348C103.012 348.626 103.023 349.253 103.035 349.898C103.044 350.716 103.053 351.533 103.062 352.375C103.074 353.187 103.086 353.999 103.098 354.836C103 357 103 357 102 359C100.68 358.67 99.36 358.34 98 358C97.9711 354.521 97.9532 351.042 97.9375 347.562C97.9291 346.569 97.9207 345.576 97.9121 344.553C97.9089 343.608 97.9057 342.664 97.9023 341.691C97.8971 340.817 97.8919 339.942 97.8865 339.041C98 337 98 337 99 336ZM116 346C117 348 117 348 117 348L116 346ZM115 348C116 351 116 351 116 351L115 348Z" fill="white"/>
<path d="M196 336C199.079 336.208 200.003 337.003 202.141 339.285C203.185 340.66 203.185 340.66 204.25 342.062C204.956 342.982 205.663 343.901 206.391 344.848C206.922 345.558 207.453 346.268 208 347C209.583 345.417 209.347 343.62 209.562 341.438C209.646 340.611 209.73 339.785 209.816 338.934C209.877 338.296 209.938 337.657 210 337C211.32 336.67 212.64 336.34 214 336C214.33 343.26 214.66 350.52 215 358C213.35 358.33 211.7 358.66 210 359C207.03 355.04 204.06 351.08 201 347C200.67 350.96 200.34 354.92 200 359C198.35 358.67 196.7 358.34 195 358C194.971 354.521 194.953 351.042 194.938 347.562C194.929 346.569 194.921 345.576 194.912 344.553C194.909 343.608 194.906 342.664 194.902 341.691C194.897 340.817 194.892 339.942 194.886 339.041C195 337 195 337 196 336ZM209 348C210 350 210 350 210 350L209 348Z" fill="white"/>
<path d="M246.16 335.902C248.092 335.92 248.092 335.92 250.063 335.938C251.353 335.947 252.643 335.956 253.973 335.965C254.972 335.976 255.971 335.988 257 336C257.33 337.65 257.66 339.3 258 341C254.04 341 250.08 341 246 341C246 342.32 246 343.64 246 345C246.99 344.34 247.98 343.68 249 343C252.464 343.346 254.049 344.033 257 346C256.67 347.32 256.34 348.64 256 350C255.043 350.073 255.043 350.073 254.066 350.148C253.24 350.223 252.414 350.298 251.563 350.375C250.739 350.445 249.915 350.514 249.066 350.586C248.384 350.723 247.703 350.859 247 351C246.67 351.66 246.34 352.32 246 353C246.66 353 247.32 353 248 353C248 352.34 248 351.68 248 351C249.65 351 251.3 351 253 351C252.67 351.66 252.34 352.32 252 353C253.98 353.33 255.96 353.66 258 354C258 355.32 258 356.64 258 358C252.72 358.33 247.44 358.66 242 359C241.222 353.555 240.982 349.493 241.375 344.125C241.419 343.45 241.463 342.774 241.508 342.078C241.945 336.033 241.945 336.033 246.16 335.902Z" fill="white"/>
<path d="M165 338C168.401 341.111 169.828 342.929 170.562 347.5C169.888 351.7 168.814 353.816 166 357C161.442 359.33 157.919 359.252 153 358C150.294 356.177 148.463 354.925 147 352C146.467 347.554 146.437 344.059 148.562 340.063C153.827 335.608 158.787 335.239 165 338ZM153.187 342.25C151.788 344.312 151.147 345.495 151 348C152.148 350.244 153.21 352.21 155 354C158.247 354.289 160.407 354.281 163.375 352.875C165.256 351.032 165.256 351.032 165.5 348.063C165.215 344.953 165.215 344.953 163.375 342.625C159.921 340.262 156.745 339.797 153.187 342.25Z" fill="white"/>
<path d="M381 338C384.456 340.617 385.891 343.221 386.5 347.562C385.956 351.306 385.465 353.137 383 356C379.214 358.184 376.755 359.013 372.375 358.937C368.684 357.912 366.732 356.652 364 354C362.26 350.52 362.415 346.797 363 343C367.929 336.38 373.545 334.588 381 338ZM368 344C367.569 347.445 367.367 349.845 369.063 352.937C372.12 354.614 374.591 354.365 378 354C380.064 353.02 380.064 353.02 381 351C381.546 347.332 381.479 345.674 379.313 342.625C377.118 340.838 377.118 340.838 374.5 340.562C371.406 341.104 370.077 341.615 368 344Z" fill="white"/>
<path d="M282 336C283.891 336.184 283.891 336.184 286 337C288.01 339.502 289.4 342.201 291 345C293.97 340.545 293.97 340.545 297 336C298.32 336.33 299.64 336.66 301 337C299.979 340.487 298.843 343.257 296.938 346.375C294.636 350.2 294.31 353.58 294 358C292.062 358.562 292.062 358.562 290 359C289 358 289 358 288.312 354.188C287.014 347.946 283.999 342.574 281 337C281.33 336.67 281.66 336.34 282 336Z" fill="white"/>
<path d="M410 336C414.95 336 419.9 336 425 336C425.33 337.65 425.66 339.3 426 341C424.02 341 422.04 341 420 341C420 346.61 420 352.22 420 358C418.68 358.33 417.36 358.66 416 359C415 358 415 358 414.902 354.184C414.909 352.602 414.921 351.019 414.938 349.438C414.942 348.631 414.947 347.825 414.951 346.994C414.963 344.996 414.981 342.998 415 341C413.02 341 411.04 341 409 341C409.33 339.35 409.66 337.7 410 336Z" fill="white"/>
<path d="M327 336C327.99 336.33 328.98 336.66 330 337C330 342.61 330 348.22 330 354C330.33 353.01 330.66 352.02 331 351C331.99 351.33 332.98 351.66 334 352C334 352.33 334 352.66 334 353C335.65 353.33 337.3 353.66 339 354C339 355.32 339 356.64 339 358C337.021 358.194 335.042 358.38 333.062 358.562C331.96 358.667 330.858 358.771 329.723 358.879C328.824 358.919 327.926 358.959 327 359C325.113 357.113 325.605 353.906 325.437 351.375C325.354 350.166 325.27 348.957 325.184 347.711C325.007 344.133 324.968 340.581 325 337C325.66 336.67 326.32 336.34 327 336Z" fill="white"/>
<path d="M327 336C327.99 336.33 328.98 336.66 330 337C330 342.61 330 348.22 330 354C330.33 353.01 330.66 352.02 331 351C331.99 351.33 332.98 351.66 334 352C334 352.33 334 352.66 334 353C335.65 353.33 337.3 353.66 339 354C339 354.33 339 354.66 339 355C335.7 355 332.4 355 329 355C329 349.39 329 343.78 329 338C328.34 338 327.68 338 327 338C327 344.6 327 351.2 327 358C326.67 358 326.34 358 326 358C325.83 355.813 325.664 353.625 325.5 351.438C325.407 350.219 325.314 349.001 325.219 347.746C325.009 344.154 324.963 340.598 325 337C325.66 336.67 326.32 336.34 327 336Z" fill="#F8F8F8"/>
<path d="M297 336C298.32 336.33 299.64 336.66 301 337C298.985 343.974 298.985 343.974 296 346C292.812 346.688 292.812 346.688 290 347C291.176 344.649 292.597 342.558 294.062 340.375C294.61 339.558 295.158 338.74 295.723 337.898C296.355 336.959 296.355 336.959 297 336Z" fill="#F8F8F8"/>
<path d="M379 337C379 337.33 379 337.66 379 338C378.408 338.014 377.817 338.028 377.207 338.043C373.001 338.297 370.537 338.631 367 341.062C364.396 344.887 364.233 347.416 364 352C363.67 352 363.34 352 363 352C362.22 344.047 362.22 344.047 365.187 340.062C370.153 336.421 372.929 335.588 379 337Z" fill="#F8F8F8"/>
<path d="M248 351C249.65 351 251.3 351 253 351C252.67 351.66 252.34 352.32 252 353C254.97 353.495 254.97 353.495 258 354C257.67 355.32 257.34 356.64 257 358C257 357.01 257 356.02 257 355C253.37 355 249.74 355 246 355C246 354.34 246 353.68 246 353C246.66 353 247.32 353 248 353C248 352.34 248 351.68 248 351Z" fill="#F8F8F8"/>
<path d="M249 343C252.342 343.245 253.605 343.605 256 346C252.7 346 249.4 346 246 346C246.99 345.01 247.98 344.02 249 343Z" fill="#F8F8F8"/>
</svg>
