<svg width="70" height="29" viewBox="0 0 70 29" fill="none" xmlns="http://www.w3.org/2000/svg">
<path d="M2.162 11V1.2H4.038L8.21 8.116H7.216L11.318 1.2H13.18L13.208 11H11.08L11.066 4.462H11.458L8.182 9.964H7.16L3.814 4.462H4.29V11H2.162ZM18.9631 11.112C18.1604 11.112 17.4464 10.944 16.8211 10.608C16.2051 10.272 15.7151 9.81467 15.3511 9.236C14.9964 8.648 14.8191 7.98067 14.8191 7.234C14.8191 6.478 14.9964 5.81067 15.3511 5.232C15.7151 4.644 16.2051 4.18667 16.8211 3.86C17.4464 3.524 18.1604 3.356 18.9631 3.356C19.7564 3.356 20.4658 3.524 21.0911 3.86C21.7164 4.18667 22.2064 4.63933 22.5611 5.218C22.9158 5.79667 23.0931 6.46867 23.0931 7.234C23.0931 7.98067 22.9158 8.648 22.5611 9.236C22.2064 9.81467 21.7164 10.272 21.0911 10.608C20.4658 10.944 19.7564 11.112 18.9631 11.112ZM18.9631 9.32C19.3271 9.32 19.6538 9.236 19.9431 9.068C20.2324 8.9 20.4611 8.662 20.6291 8.354C20.7971 8.03667 20.8811 7.66333 20.8811 7.234C20.8811 6.79533 20.7971 6.422 20.6291 6.114C20.4611 5.806 20.2324 5.568 19.9431 5.4C19.6538 5.232 19.3271 5.148 18.9631 5.148C18.5991 5.148 18.2724 5.232 17.9831 5.4C17.6938 5.568 17.4604 5.806 17.2831 6.114C17.1151 6.422 17.0311 6.79533 17.0311 7.234C17.0311 7.66333 17.1151 8.03667 17.2831 8.354C17.4604 8.662 17.6938 8.9 17.9831 9.068C18.2724 9.236 18.5991 9.32 18.9631 9.32ZM29.1309 3.356C29.7283 3.356 30.2603 3.47733 30.7269 3.72C31.2029 3.95333 31.5763 4.31733 31.8469 4.812C32.1176 5.29733 32.2529 5.92267 32.2529 6.688V11H30.0689V7.024C30.0689 6.41733 29.9336 5.96933 29.6629 5.68C29.4016 5.39067 29.0283 5.246 28.5429 5.246C28.1976 5.246 27.8849 5.32067 27.6049 5.47C27.3343 5.61 27.1196 5.82933 26.9609 6.128C26.8116 6.42667 26.7369 6.80933 26.7369 7.276V11H24.5529V3.468H26.6389V5.554L26.2469 4.924C26.5176 4.42 26.9049 4.03267 27.4089 3.762C27.9129 3.49133 28.4869 3.356 29.1309 3.356ZM38.0253 11.112C37.1666 11.112 36.4106 10.944 35.7573 10.608C35.1133 10.272 34.614 9.81467 34.2593 9.236C33.9046 8.648 33.7273 7.98067 33.7273 7.234C33.7273 6.478 33.9 5.81067 34.2453 5.232C34.6 4.644 35.0806 4.18667 35.6873 3.86C36.294 3.524 36.98 3.356 37.7453 3.356C38.4826 3.356 39.1453 3.51467 39.7333 3.832C40.3306 4.14 40.802 4.588 41.1473 5.176C41.4926 5.75467 41.6653 6.45 41.6653 7.262C41.6653 7.346 41.6606 7.444 41.6513 7.556C41.642 7.65867 41.6326 7.75667 41.6233 7.85H35.5053V6.576H40.4753L39.6353 6.954C39.6353 6.562 39.556 6.22133 39.3973 5.932C39.2386 5.64267 39.0193 5.41867 38.7393 5.26C38.4593 5.092 38.1326 5.008 37.7593 5.008C37.386 5.008 37.0546 5.092 36.7653 5.26C36.4853 5.41867 36.266 5.64733 36.1073 5.946C35.9486 6.23533 35.8693 6.58067 35.8693 6.982V7.318C35.8693 7.72867 35.958 8.09267 36.1353 8.41C36.322 8.718 36.5786 8.956 36.9053 9.124C37.2413 9.28267 37.6333 9.362 38.0813 9.362C38.4826 9.362 38.8326 9.30133 39.1313 9.18C39.4393 9.05867 39.7193 8.87667 39.9713 8.634L41.1333 9.894C40.788 10.286 40.354 10.5893 39.8313 10.804C39.3086 11.0093 38.7066 11.112 38.0253 11.112ZM43.9346 13.828C43.5426 13.828 43.1553 13.7673 42.7726 13.646C42.3899 13.5247 42.0773 13.3567 41.8346 13.142L42.6326 11.588C42.8006 11.7373 42.9919 11.854 43.2066 11.938C43.4306 12.022 43.6499 12.064 43.8646 12.064C44.1726 12.064 44.4153 11.9893 44.5926 11.84C44.7793 11.7 44.9473 11.462 45.0966 11.126L45.4886 10.202L45.6566 9.964L48.3586 3.468H50.4586L47.0566 11.462C46.8139 12.0687 46.5339 12.5447 46.2166 12.89C45.9086 13.2353 45.5633 13.478 45.1806 13.618C44.8073 13.758 44.3919 13.828 43.9346 13.828ZM45.2226 11.294L41.8626 3.468H44.1166L46.7206 9.768L45.2226 11.294ZM51.3498 11V0.611999H53.5338V11H51.3498ZM59.1447 11.112C58.3421 11.112 57.6281 10.944 57.0027 10.608C56.3867 10.272 55.8967 9.81467 55.5327 9.236C55.1781 8.648 55.0007 7.98067 55.0007 7.234C55.0007 6.478 55.1781 5.81067 55.5327 5.232C55.8967 4.644 56.3867 4.18667 57.0027 3.86C57.6281 3.524 58.3421 3.356 59.1447 3.356C59.9381 3.356 60.6474 3.524 61.2727 3.86C61.8981 4.18667 62.3881 4.63933 62.7427 5.218C63.0974 5.79667 63.2747 6.46867 63.2747 7.234C63.2747 7.98067 63.0974 8.648 62.7427 9.236C62.3881 9.81467 61.8981 10.272 61.2727 10.608C60.6474 10.944 59.9381 11.112 59.1447 11.112ZM59.1447 9.32C59.5087 9.32 59.8354 9.236 60.1247 9.068C60.4141 8.9 60.6427 8.662 60.8107 8.354C60.9787 8.03667 61.0627 7.66333 61.0627 7.234C61.0627 6.79533 60.9787 6.422 60.8107 6.114C60.6427 5.806 60.4141 5.568 60.1247 5.4C59.8354 5.232 59.5087 5.148 59.1447 5.148C58.7807 5.148 58.4541 5.232 58.1647 5.4C57.8754 5.568 57.6421 5.806 57.4647 6.114C57.2967 6.422 57.2127 6.79533 57.2127 7.234C57.2127 7.66333 57.2967 8.03667 57.4647 8.354C57.6421 8.662 57.8754 8.9 58.1647 9.068C58.4541 9.236 58.7807 9.32 59.1447 9.32ZM67.8146 11.112C66.9279 11.112 66.2372 10.888 65.7426 10.44C65.2479 9.98267 65.0006 9.306 65.0006 8.41V1.802H67.1846V8.382C67.1846 8.69933 67.2686 8.94667 67.4366 9.124C67.6046 9.292 67.8332 9.376 68.1226 9.376C68.4679 9.376 68.7619 9.28267 69.0046 9.096L69.5926 10.636C69.3686 10.7947 69.0979 10.916 68.7806 11C68.4726 11.0747 68.1506 11.112 67.8146 11.112ZM63.8386 5.316V3.636H69.0606V5.316H63.8386ZM0.874 28L5.242 18.2H7.482L11.864 28H9.484L5.9 19.348H6.796L3.198 28H0.874ZM3.058 25.9L3.66 24.178H8.7L9.316 25.9H3.058ZM15.8924 28.112C15.1831 28.112 14.5437 27.9533 13.9744 27.636C13.4051 27.3093 12.9524 26.8567 12.6164 26.278C12.2897 25.6993 12.1264 25.018 12.1264 24.234C12.1264 23.4407 12.2897 22.7547 12.6164 22.176C12.9524 21.5973 13.4051 21.1493 13.9744 20.832C14.5437 20.5147 15.1831 20.356 15.8924 20.356C16.5271 20.356 17.0824 20.496 17.5584 20.776C18.0344 21.056 18.4031 21.4807 18.6644 22.05C18.9257 22.6193 19.0564 23.3473 19.0564 24.234C19.0564 25.1113 18.9304 25.8393 18.6784 26.418C18.4264 26.9873 18.0624 27.412 17.5864 27.692C17.1197 27.972 16.5551 28.112 15.8924 28.112ZM16.2704 26.32C16.6251 26.32 16.9471 26.236 17.2364 26.068C17.5257 25.9 17.7544 25.662 17.9224 25.354C18.0997 25.0367 18.1884 24.6633 18.1884 24.234C18.1884 23.7953 18.0997 23.422 17.9224 23.114C17.7544 22.806 17.5257 22.568 17.2364 22.4C16.9471 22.232 16.6251 22.148 16.2704 22.148C15.9064 22.148 15.5797 22.232 15.2904 22.4C15.0011 22.568 14.7677 22.806 14.5904 23.114C14.4224 23.422 14.3384 23.7953 14.3384 24.234C14.3384 24.6633 14.4224 25.0367 14.5904 25.354C14.7677 25.662 15.0011 25.9 15.2904 26.068C15.5797 26.236 15.9064 26.32 16.2704 26.32ZM18.2444 28V26.46L18.2864 24.22L18.1464 21.994V17.612H20.3304V28H18.2444ZM31.9978 20.356C32.5951 20.356 33.1224 20.4773 33.5798 20.72C34.0464 20.9533 34.4104 21.3173 34.6718 21.812C34.9424 22.2973 35.0778 22.9227 35.0778 23.688V28H32.8938V24.024C32.8938 23.4173 32.7678 22.9693 32.5158 22.68C32.2638 22.3907 31.9091 22.246 31.4518 22.246C31.1344 22.246 30.8498 22.3207 30.5978 22.47C30.3458 22.61 30.1498 22.8247 30.0098 23.114C29.8698 23.4033 29.7998 23.772 29.7998 24.22V28H27.6158V24.024C27.6158 23.4173 27.4898 22.9693 27.2378 22.68C26.9951 22.3907 26.6451 22.246 26.1878 22.246C25.8704 22.246 25.5858 22.3207 25.3338 22.47C25.0818 22.61 24.8858 22.8247 24.7458 23.114C24.6058 23.4033 24.5358 23.772 24.5358 24.22V28H22.3518V20.468H24.4378V22.526L24.0458 21.924C24.3071 21.4107 24.6758 21.0233 25.1518 20.762C25.6371 20.4913 26.1878 20.356 26.8038 20.356C27.4944 20.356 28.0964 20.5333 28.6098 20.888C29.1324 21.2333 29.4778 21.7653 29.6458 22.484L28.8758 22.274C29.1278 21.686 29.5291 21.2193 30.0798 20.874C30.6398 20.5287 31.2791 20.356 31.9978 20.356ZM37.0353 28V20.468H39.2193V28H37.0353ZM38.1273 19.418C37.726 19.418 37.3993 19.3013 37.1473 19.068C36.8953 18.8347 36.7693 18.5453 36.7693 18.2C36.7693 17.8547 36.8953 17.5653 37.1473 17.332C37.3993 17.0987 37.726 16.982 38.1273 16.982C38.5287 16.982 38.8553 17.094 39.1073 17.318C39.3593 17.5327 39.4853 17.8127 39.4853 18.158C39.4853 18.522 39.3593 18.8253 39.1073 19.068C38.8647 19.3013 38.538 19.418 38.1273 19.418ZM45.8243 20.356C46.4216 20.356 46.9536 20.4773 47.4203 20.72C47.8963 20.9533 48.2696 21.3173 48.5403 21.812C48.8109 22.2973 48.9463 22.9227 48.9463 23.688V28H46.7623V24.024C46.7623 23.4173 46.6269 22.9693 46.3563 22.68C46.0949 22.3907 45.7216 22.246 45.2363 22.246C44.8909 22.246 44.5783 22.3207 44.2983 22.47C44.0276 22.61 43.8129 22.8293 43.6543 23.128C43.5049 23.4267 43.4303 23.8093 43.4303 24.276V28H41.2463V20.468H43.3323V22.554L42.9403 21.924C43.2109 21.42 43.5983 21.0327 44.1023 20.762C44.6063 20.4913 45.1803 20.356 45.8243 20.356Z" fill="#060644"/>
</svg>
