<?xml version="1.0" encoding="UTF-8"?>
<svg xmlns="http://www.w3.org/2000/svg" xmlns:xlink="http://www.w3.org/1999/xlink" width="0" height="0">
<defs>
<symbol viewBox="0 0 20 20" fill="none" id="admin">
<path d="M10.0013 19.1667C5.37047 18.1375 1.66797 13.7683 1.66797 9.16666V4.16666L10.0013 0.833328L18.3346 4.16666V9.16666C18.3346 13.77 14.6321 18.1375 10.0013 19.1667ZM3.33464 5V9.16666C3.38226 11.0934 4.05994 12.9515 5.26395 14.4565C6.46796 15.9616 8.13198 17.0306 10.0013 17.5C11.8706 17.0306 13.5346 15.9616 14.7387 14.4565C15.9427 12.9515 16.6203 11.0934 16.668 9.16666V5L10.0013 2.49999L3.33464 5Z" fill="currentColor" fill-opacity="0.75"></path>
<path d="M10.0013 9.16667C11.1519 9.16667 12.0846 8.23393 12.0846 7.08333C12.0846 5.93274 11.1519 5 10.0013 5C8.85071 5 7.91797 5.93274 7.91797 7.08333C7.91797 8.23393 8.85071 9.16667 10.0013 9.16667Z" fill="currentColor" fill-opacity="0.75"></path>
<path d="M5.83203 12.5C6.24264 13.2486 6.84486 13.8746 7.57701 14.3139C8.30916 14.7532 9.14493 14.99 9.9987 15C10.8525 14.99 11.6882 14.7532 12.4204 14.3139C13.1525 13.8746 13.7548 13.2486 14.1654 12.5C14.1445 10.92 11.3804 10 9.9987 10C8.60953 10 5.85286 10.92 5.83203 12.5Z" fill="currentColor" fill-opacity="0.75"></path>
</symbol>
<symbol viewBox="0 0 24 24" fill="none" stroke="currentColor" stroke-width="2" stroke-linecap="round" stroke-linejoin="round" id="arrow-left"><path d="m12 19-7-7 7-7"></path><path d="M19 12H5"></path></symbol>
<symbol viewBox="0 0 24 24" fill="currentColor" id="arrow-up"><path d="M13.0001 7.82843V20H11.0001V7.82843L5.63614 13.1924L4.22192 11.7782L12.0001 4L19.7783 11.7782L18.3641 13.1924L13.0001 7.82843Z"></path></symbol>
<symbol fill="none" viewBox="0 0 24 24" stroke-width="1.5" stroke="currentColor" class="size-6" id="arrows-up-down">
  <path stroke-linecap="round" stroke-linejoin="round" d="M3 7.5 7.5 3m0 0L12 7.5M7.5 3v13.5m13.5 0L16.5 21m0 0L12 16.5m4.5 4.5V7.5" ></path>
</symbol>
<symbol viewBox="0 0 20 20" fill="none" id="balance-scale">
<path d="M7.93934 15.0943L8.125 14.89V13.8828L5.08301 7.46094H3.66699L0.625 13.8828V14.9391L0.790391 15.1186C1.24465 15.6105 1.79568 16.0031 2.40891 16.2719C3.02213 16.5407 3.68429 16.6798 4.35383 16.6804H4.37023C5.04252 16.6774 5.70687 16.5349 6.32124 16.2619C6.9356 15.9889 7.48659 15.5913 7.93934 15.0943ZM6.875 14.3987C6.20813 15.0611 5.30589 15.4321 4.36598 15.4305H4.35309C3.42971 15.4351 2.54084 15.0799 1.875 14.4401V14.1641L4.375 8.88625L6.875 14.1641V14.3987ZM16.333 7.46094H14.917L11.875 13.8828V14.9391L12.0404 15.1186C12.4946 15.6105 13.0457 16.0031 13.6589 16.2719C14.2721 16.5407 14.9343 16.6798 15.6038 16.6804H15.6202C16.2925 16.6774 16.9569 16.5349 17.5712 16.2619C18.1856 15.9888 18.7366 15.5912 19.1893 15.0942L19.375 14.89V13.8828L16.333 7.46094ZM18.125 14.3987C17.4581 15.0611 16.5559 15.4321 15.616 15.4305H15.6031C14.6797 15.4351 13.7908 15.0799 13.125 14.4401V14.1641L15.625 8.88625L18.125 14.1641V14.3987Z" fill="currentColor"></path>
<path d="M10.625 7.68199C10.9727 7.57748 11.289 7.38841 11.5458 7.13169C11.8025 6.87497 11.9915 6.55862 12.0961 6.21093H16.25V4.96093H12.0961C11.9615 4.5095 11.6848 4.11356 11.3072 3.83203C10.9295 3.5505 10.4711 3.39842 10 3.39842C9.52895 3.39842 9.07048 3.5505 8.69282 3.83203C8.31516 4.11356 8.03848 4.5095 7.90395 4.96093H3.75V6.21093H7.90395C8.00845 6.55862 8.19752 6.87497 8.45424 7.13169C8.71096 7.38841 9.02731 7.57748 9.375 7.68199V18.0859H5.3125V19.3359H14.6875V18.0859H10.625V7.68199ZM9.0625 5.58593C9.0625 5.40051 9.11748 5.21926 9.2205 5.06509C9.32351 4.91091 9.46993 4.79075 9.64123 4.7198C9.81254 4.64884 10.001 4.63027 10.1829 4.66645C10.3648 4.70262 10.5318 4.79191 10.6629 4.92302C10.794 5.05413 10.8833 5.22118 10.9195 5.40303C10.9557 5.58489 10.9371 5.77339 10.8661 5.9447C10.7952 6.116 10.675 6.26242 10.5208 6.36544C10.3667 6.46845 10.1854 6.52343 10 6.52343C9.75136 6.52343 9.5129 6.42466 9.33709 6.24885C9.16127 6.07303 9.0625 5.83457 9.0625 5.58593Z" fill="currentColor"></path>
</symbol>
<symbol viewBox="0 0 25 25" fill="none" id="block">
<path d="M12.0137 24.1124C10.3537 24.1124 8.79367 23.7972 7.33367 23.1668C5.87367 22.5364 4.60367 21.6816 3.52367 20.6024C2.44367 19.5232 1.58887 18.2532 0.959273 16.7924C0.329673 15.3316 0.0144734 13.7716 0.0136734 12.1124C0.0128734 10.4532 0.328073 8.89318 0.959273 7.43238C1.59047 5.97158 2.44527 4.70158 3.52367 3.62238C4.60207 2.54318 5.87207 1.68838 7.33367 1.05798C8.79527 0.427581 10.3553 0.112381 12.0137 0.112381C13.6721 0.112381 15.2321 0.427581 16.6937 1.05798C18.1553 1.68838 19.4253 2.54318 20.5037 3.62238C21.5821 4.70158 22.4373 5.97158 23.0693 7.43238C23.7013 8.89318 24.0161 10.4532 24.0137 12.1124C24.0113 13.7716 23.6961 15.3316 23.0681 16.7924C22.4401 18.2532 21.5853 19.5232 20.5037 20.6024C19.4221 21.6816 18.1521 22.5368 16.6937 23.168C15.2353 23.7992 13.6753 24.114 12.0137 24.1124ZM12.0137 21.7124C13.0937 21.7124 14.1337 21.5376 15.1337 21.188C16.1337 20.8384 17.0537 20.3332 17.8937 19.6724L4.45367 6.23238C3.79367 7.07238 3.28847 7.99238 2.93807 8.99238C2.58767 9.99238 2.41287 11.0324 2.41367 12.1124C2.41367 14.7924 3.34367 17.0624 5.20367 18.9224C7.06367 20.7824 9.33367 21.7124 12.0137 21.7124ZM19.5737 17.9924C20.2337 17.1524 20.7389 16.2324 21.0893 15.2324C21.4397 14.2324 21.6145 13.1924 21.6137 12.1124C21.6137 9.43238 20.6837 7.16238 18.8237 5.30238C16.9637 3.44238 14.6937 2.51238 12.0137 2.51238C10.9337 2.51238 9.89367 2.68718 8.89367 3.03678C7.89367 3.38638 6.97367 3.89158 6.13367 4.55238L19.5737 17.9924Z" fill="currentColor"></path>
</symbol>
<symbol fill="none" viewBox="0 0 24 24" stroke-width="1.5" stroke="currentColor" class="size-6" id="calendar">
  <path stroke-linecap="round" stroke-linejoin="round" d="M6.75 3v2.25M17.25 3v2.25M3 18.75V7.5a2.25 2.25 0 0 1 2.25-2.25h13.5A2.25 2.25 0 0 1 21 7.5v11.25m-18 0A2.25 2.25 0 0 0 5.25 21h13.5A2.25 2.25 0 0 0 21 18.75m-18 0v-7.5A2.25 2.25 0 0 1 5.25 9h13.5A2.25 2.25 0 0 1 21 11.25v7.5" ></path>
</symbol>
<symbol viewBox="0 0 20 20" fill="none" id="card">
<path d="M15.9375 3.75H4.0625C2.85438 3.75 1.875 4.72938 1.875 5.9375V14.0625C1.875 15.2706 2.85438 16.25 4.0625 16.25H15.9375C17.1456 16.25 18.125 15.2706 18.125 14.0625V5.9375C18.125 4.72938 17.1456 3.75 15.9375 3.75Z" stroke="currentColor" stroke-width="1.25" stroke-linecap="round" stroke-linejoin="round"></path>
<path d="M1.875 7.5H18.125M5 11.7188H6.875V12.5H5V11.7188Z" stroke="currentColor" stroke-width="2.34375" stroke-linejoin="round"></path>
</symbol>
<symbol fill="none" viewBox="0 0 24 24" stroke-width="1.5" stroke="currentColor" class="size-6" id="check">
  <path stroke-linecap="round" stroke-linejoin="round" d="m4.5 12.75 6 6 9-13.5" ></path>
</symbol>
<symbol fill="none" viewBox="0 0 24 24" stroke-width="1.5" stroke="currentColor" class="size-6" id="chevron-down">
  <path stroke-linecap="round" stroke-linejoin="round" d="m19.5 8.25-7.5 7.5-7.5-7.5" ></path>
</symbol>
<symbol fill="none" viewBox="0 0 24 24" stroke-width="1.5" stroke="currentColor" class="size-6" id="chevron-left">
  <path stroke-linecap="round" stroke-linejoin="round" d="M15.75 19.5 8.25 12l7.5-7.5" ></path>
</symbol>
<symbol fill="none" viewBox="0 0 24 24" stroke-width="1.5" stroke="currentColor" class="size-6" id="chevron-right">
  <path stroke-linecap="round" stroke-linejoin="round" d="m8.25 4.5 7.5 7.5-7.5 7.5" ></path>
</symbol>
<symbol viewBox="0 0 512 512" id="close"><path fill="none" stroke="currentColor" stroke-linecap="round" stroke-linejoin="round" stroke-width="32" d="M368 368L144 144M368 144L144 368"></path></symbol>
<symbol viewBox="0 0 20 20" fill="none" id="coins">
<path d="M12.5026 3.33333C14.2707 3.33333 15.9664 4.03571 17.2167 5.28595C18.4669 6.53619 19.1693 8.23188 19.1693 9.99999C19.1693 11.7681 18.4669 13.4638 17.2167 14.714C15.9664 15.9643 14.2707 16.6667 12.5026 16.6667C10.7345 16.6667 9.0388 15.9643 7.78856 14.714C6.53832 13.4638 5.83594 11.7681 5.83594 9.99999C5.83594 8.23188 6.53832 6.53619 7.78856 5.28595C9.0388 4.03571 10.7345 3.33333 12.5026 3.33333ZM12.5026 15C13.8287 15 15.1005 14.4732 16.0381 13.5355C16.9758 12.5978 17.5026 11.3261 17.5026 9.99999C17.5026 8.67391 16.9758 7.40214 16.0381 6.46446C15.1005 5.52678 13.8287 4.99999 12.5026 4.99999C11.1765 4.99999 9.90475 5.52678 8.96707 6.46446C8.02939 7.40214 7.5026 8.67391 7.5026 9.99999C7.5026 11.3261 8.02939 12.5978 8.96707 13.5355C9.90475 14.4732 11.1765 15 12.5026 15ZM2.5026 9.99999C2.50257 11.0333 2.82319 12.0411 3.42024 12.8844C4.01729 13.7278 4.86134 14.365 5.83594 14.7083V16.45C2.96094 15.7083 0.835938 13.1083 0.835938 9.99999C0.835938 6.89166 2.96094 4.29166 5.83594 3.55V5.29166C3.89427 5.97499 2.5026 7.825 2.5026 9.99999Z" fill="currentColor"></path>
</symbol>
<symbol viewBox="0 0 24 24" fill="none" stroke="currentColor" stroke-width="2" stroke-linecap="round" stroke-linejoin="round" id="copy"><rect width="14" height="14" x="8" y="8" rx="2" ry="2"></rect><path d="M4 16c-1.1 0-2-.9-2-2V4c0-1.1.9-2 2-2h10c1.1 0 2 .9 2 2"></path></symbol>
<symbol viewBox="0 0 6 6" fill="none" id="dot">
<circle cx="3" cy="3" r="3" fill="currentColor"></circle>
</symbol>
<symbol viewBox="0 0 24 24" fill="none" stroke="currentColor" stroke-width="2" stroke-linecap="round" stroke-linejoin="round" class="lucide lucide-download" id="download"><path d="M21 15v4a2 2 0 0 1-2 2H5a2 2 0 0 1-2-2v-4"></path><polyline points="7 10 12 15 17 10"></polyline><line x1="12" x2="12" y1="15" y2="3"></line></symbol>
<symbol viewBox="0 0 24 24" fill="none" stroke="currentColor" stroke-width="2" stroke-linecap="round" stroke-linejoin="round" id="edit"><path d="M12 20h9"></path><path d="M16.376 3.622a1 1 0 0 1 3.002 3.002L7.368 18.635a2 2 0 0 1-.855.506l-2.872.838a.5.5 0 0 1-.62-.62l.838-2.872a2 2 0 0 1 .506-.854z"></path></symbol>
<symbol viewBox="0 0 24 24" fill="none" stroke="currentColor" stroke-width="2" stroke-linecap="round" stroke-linejoin="round" class="lucide lucide-eye" id="eye"><path d="M2.062 12.348a1 1 0 0 1 0-.696 10.75 10.75 0 0 1 19.876 0 1 1 0 0 1 0 .696 10.75 10.75 0 0 1-19.876 0"></path><circle cx="12" cy="12" r="3"></circle></symbol>
<symbol viewBox="0 0 22 24" fill="none" id="filter">
<path fill-rule="evenodd" clip-rule="evenodd" d="M11 9.75C16.3848 9.75 20.75 7.73528 20.75 5.25C20.75 2.76472 16.3848 0.75 11 0.75C5.61522 0.75 1.25 2.76472 1.25 5.25C1.25 7.73528 5.61522 9.75 11 9.75Z" stroke="currentColor" stroke-width="1.5" stroke-linecap="round" stroke-linejoin="round"></path>
<path d="M1.25 5.25C1.25253 9.76548 4.35614 13.688 8.75 14.729V21C8.75 22.2426 9.75736 23.25 11 23.25C12.2426 23.25 13.25 22.2426 13.25 21V14.729C17.6439 13.688 20.7475 9.76548 20.75 5.25" stroke="currentColor" stroke-width="1.5" stroke-linecap="round" stroke-linejoin="round"></path>
</symbol>
<symbol viewBox="0 0 24 24" fill="none" stroke="currentColor" stroke-width="2" stroke-linecap="round" stroke-linejoin="round" id="forward"><polyline points="15 17 20 12 15 7"></polyline><path d="M4 18v-2a4 4 0 0 1 4-4h12"></path></symbol>
<symbol viewBox="0 0 24 24" fill="none" stroke="currentColor" stroke-width="2" stroke-linecap="round" stroke-linejoin="round" class="lucide lucide-hand-coins" id="hand-coins"><path d="M11 15h2a2 2 0 1 0 0-4h-3c-.6 0-1.1.2-1.4.6L3 17"></path><path d="m7 21 1.6-1.4c.3-.4.8-.6 1.4-.6h4c1.1 0 2.1-.4 2.8-1.2l4.6-4.4a2 2 0 0 0-2.75-2.91l-4.2 3.9"></path><path d="m2 16 6 6"></path><circle cx="16" cy="9" r="2.9"></circle><circle cx="6" cy="5" r="3"></circle></symbol>
<symbol viewBox="0 0 24 24" fill="none" stroke="currentColor" stroke-width="2" stroke-linecap="round" stroke-linejoin="round" id="history"><path d="M3 12a9 9 0 1 0 9-9 9.75 9.75 0 0 0-6.74 2.74L3 8"></path><path d="M3 3v5h5"></path><path d="M12 7v5l4 2"></path></symbol>
<symbol viewBox="0 0 24 24" fill="none" stroke="currentColor" stroke-width="2" stroke-linecap="round" stroke-linejoin="round" id="home"><path d="M15 21v-8a1 1 0 0 0-1-1h-4a1 1 0 0 0-1 1v8"></path><path d="M3 10a2 2 0 0 1 .709-1.528l7-5.999a2 2 0 0 1 2.582 0l7 5.999A2 2 0 0 1 21 10v9a2 2 0 0 1-2 2H5a2 2 0 0 1-2-2z"></path></symbol>
<symbol viewBox="0 0 24 24" fill="none" stroke="currentColor" stroke-width="1" stroke-linecap="round" stroke-linejoin="round" class="lucide lucide-image" id="image"><rect width="18" height="18" x="3" y="3" rx="2" ry="2"></rect><circle cx="9" cy="9" r="2"></circle><path d="m21 15-3.086-3.086a2 2 0 0 0-2.828 0L6 21"></path></symbol>
<symbol viewBox="0 0 20 20" fill="none" id="logout">
<path d="M16.6693 10H8.7526M15.0026 12.5L17.5026 10L15.0026 7.50004M10.8359 5.83337V5.00004C10.8359 4.55801 10.6603 4.13409 10.3478 3.82153C10.0352 3.50897 9.6113 3.33337 9.16927 3.33337H5.0026C4.56058 3.33337 4.13665 3.50897 3.82409 3.82153C3.51153 4.13409 3.33594 4.55801 3.33594 5.00004V15C3.33594 15.4421 3.51153 15.866 3.82409 16.1786C4.13665 16.4911 4.56058 16.6667 5.0026 16.6667H9.16927C9.6113 16.6667 10.0352 16.4911 10.3478 16.1786C10.6603 15.866 10.8359 15.4421 10.8359 15V14.1667" stroke="currentColor" stroke-width="1.5" stroke-linecap="round" stroke-linejoin="round"></path>
</symbol>
<symbol viewBox="0 0 24 24" fill="none" stroke="currentColor" stroke-width="2" stroke-linecap="round" stroke-linejoin="round" id="minus"><path d="M5 12h14"></path></symbol>
<symbol fill="none" viewBox="0 0 24 24" stroke-width="1.5" stroke="currentColor" class="size-6" id="more">
  <path stroke-linecap="round" stroke-linejoin="round" d="M12 6.75a.75.75 0 1 1 0-1.5.75.75 0 0 1 0 1.5ZM12 12.75a.75.75 0 1 1 0-1.5.75.75 0 0 1 0 1.5ZM12 18.75a.75.75 0 1 1 0-1.5.75.75 0 0 1 0 1.5Z" ></path>
</symbol>
<symbol class="ionicon" viewBox="0 0 512 512" id="notifications"><path d="M427.68 351.43C402 320 383.87 304 383.87 217.35 383.87 138 343.35 109.73 310 96c-4.43-1.82-8.6-6-9.95-10.55C294.2 65.54 277.8 48 256 48s-38.21 17.55-44 37.47c-1.35 4.6-5.52 8.71-9.95 10.53-33.39 13.75-73.87 41.92-73.87 121.35C128.13 304 110 320 84.32 351.43 73.68 364.45 83 384 101.61 384h308.88c18.51 0 27.77-19.61 17.19-32.57zM320 384v16a64 64 0 01-128 0v-16" fill="none" stroke="currentColor" stroke-linecap="round" stroke-linejoin="round" stroke-width="32"></path></symbol>
<symbol viewBox="0 0 20 20" fill="none" id="people">
<path d="M9.99935 8.75C9.11529 8.75 8.26745 8.42076 7.64233 7.83471C7.01721 7.24866 6.66602 6.4538 6.66602 5.625C6.66602 4.7962 7.01721 4.00134 7.64233 3.41529C8.26745 2.82924 9.11529 2.5 9.99935 2.5C10.8834 2.5 11.7312 2.82924 12.3564 3.41529C12.9815 4.00134 13.3327 4.7962 13.3327 5.625C13.3327 6.4538 12.9815 7.24866 12.3564 7.83471C11.7312 8.42076 10.8834 8.75 9.99935 8.75ZM9.99935 3.75C8.89268 3.75 7.99935 4.5875 7.99935 5.625C7.99935 6.6625 8.89268 7.5 9.99935 7.5C11.106 7.5 11.9993 6.6625 11.9993 5.625C11.9993 4.5875 11.106 3.75 9.99935 3.75Z" fill="currentColor"></path>
<path d="M18 13.75C17.6267 13.75 17.3333 13.475 17.3333 13.125C17.3333 12.775 17.6267 12.5 18 12.5C18.3733 12.5 18.6667 12.225 18.6667 11.875C18.6667 11.0462 18.3155 10.2513 17.6904 9.66529C17.0652 9.07924 16.2174 8.75 15.3333 8.75H14C13.6267 8.75 13.3333 8.475 13.3333 8.125C13.3333 7.775 13.6267 7.5 14 7.5C15.1067 7.5 16 6.6625 16 5.625C16 4.5875 15.1067 3.75 14 3.75C13.6267 3.75 13.3333 3.475 13.3333 3.125C13.3333 2.775 13.6267 2.5 14 2.5C14.8841 2.5 15.7319 2.82924 16.357 3.41529C16.9821 4.00134 17.3333 4.7962 17.3333 5.625C17.3333 6.4 17.04 7.1 16.5333 7.65C18.52 8.15 20 9.85 20 11.875C20 12.9125 19.1067 13.75 18 13.75ZM2 13.75C0.893333 13.75 0 12.9125 0 11.875C0 9.85 1.46667 8.15 3.46667 7.65C2.97333 7.1 2.66667 6.4 2.66667 5.625C2.66667 4.7962 3.01786 4.00134 3.64298 3.41529C4.2681 2.82924 5.11595 2.5 6 2.5C6.37333 2.5 6.66667 2.775 6.66667 3.125C6.66667 3.475 6.37333 3.75 6 3.75C4.89333 3.75 4 4.5875 4 5.625C4 6.6625 4.89333 7.5 6 7.5C6.37333 7.5 6.66667 7.775 6.66667 8.125C6.66667 8.475 6.37333 8.75 6 8.75H4.66667C3.78261 8.75 2.93477 9.07924 2.30964 9.66529C1.68452 10.2513 1.33333 11.0462 1.33333 11.875C1.33333 12.225 1.62667 12.5 2 12.5C2.37333 12.5 2.66667 12.775 2.66667 13.125C2.66667 13.475 2.37333 13.75 2 13.75ZM14 17.5H6C4.89333 17.5 4 16.6625 4 15.625V14.375C4 11.9625 6.09333 10 8.66667 10H11.3333C13.9067 10 16 11.9625 16 14.375V15.625C16 16.6625 15.1067 17.5 14 17.5ZM8.66667 11.25C7.78261 11.25 6.93477 11.5792 6.30964 12.1653C5.68452 12.7513 5.33333 13.5462 5.33333 14.375V15.625C5.33333 15.975 5.62667 16.25 6 16.25H14C14.3733 16.25 14.6667 15.975 14.6667 15.625V14.375C14.6667 13.5462 14.3155 12.7513 13.6904 12.1653C13.0652 11.5792 12.2174 11.25 11.3333 11.25H8.66667Z" fill="currentColor"></path>
</symbol>
<symbol viewBox="0 0 27 26" fill="none" id="piggy-bank-2">
<path d="M18.6642 11.8256C18.9283 11.8256 19.1583 11.7263 19.3542 11.5279C19.5501 11.3295 19.6481 11.0965 19.6481 10.8291C19.6481 10.5616 19.5501 10.3287 19.3542 10.1303C19.1583 9.93184 18.9283 9.83262 18.6642 9.83262C18.4001 9.83262 18.1701 9.93184 17.9742 10.1303C17.7783 10.3287 17.6803 10.5616 17.6803 10.8291C17.6803 11.0965 17.7783 11.3295 17.9742 11.5279C18.1701 11.7263 18.4001 11.8256 18.6642 11.8256ZM8.44199 8.88792H14.8309V7.5938H8.44199V8.88792ZM4.9281 23.7703C4.30284 21.5099 3.66736 19.268 3.02166 17.0447C2.37595 14.8214 2.0531 12.5339 2.0531 10.182C2.0531 8.56266 2.61192 7.18702 3.72954 6.05509C4.84717 4.92317 6.20503 4.35764 7.8031 4.35851H14.8309C15.3829 3.62172 16.0354 3.00615 16.7884 2.5118C17.5415 2.01745 18.3797 1.77027 19.3031 1.77027C19.4752 1.77027 19.6247 1.83455 19.7516 1.96309C19.8785 2.09164 19.942 2.24306 19.942 2.41733C19.942 2.46392 19.9343 2.51051 19.919 2.55709C19.9037 2.60282 19.8909 2.64639 19.8807 2.6878C19.7299 3.07517 19.6089 3.4716 19.5178 3.87709C19.4266 4.28258 19.3436 4.68937 19.2686 5.09745L23.0112 8.88792H25.0531V15.6743L21.6887 16.7976L19.6225 23.7703H14.8309V21.182H9.71977V23.7703H4.9281ZM5.88643 22.4762H8.44199V19.8879H16.1087V22.4762H18.6642L20.6448 15.8114L23.7753 14.7438V10.182H22.4975L18.0253 5.65262C18.0253 5.22125 18.0522 4.80627 18.1058 4.40768C18.1595 4.0091 18.2553 3.61266 18.3933 3.21839C17.7757 3.39094 17.2412 3.69592 16.7897 4.13333C16.3382 4.57074 15.9728 5.07717 15.6934 5.65262H7.8031C6.56792 5.65262 5.51375 6.09478 4.6406 6.97909C3.76745 7.86341 3.33088 8.93106 3.33088 10.182C3.33088 12.2958 3.61838 14.3612 4.19338 16.3783C4.76838 18.3954 5.33273 20.428 5.88643 22.4762Z" fill="currentColor"></path>
</symbol>
<symbol viewBox="0 0 20 20" fill="none" id="piggy-bank">
<path d="M8.081 1.47644C8.611 1.85496 9.118 2.1042 9.535 2.15902C9.30611 2.62787 9.14763 3.13004 9.065 3.64826C8.393 3.49417 7.754 3.12703 7.229 2.75265C6.97761 2.57227 6.73435 2.38005 6.5 2.1766V4.487C6.49985 4.64161 6.45502 4.79264 6.37127 4.92071C6.28753 5.04878 6.16869 5.14805 6.03 5.20577L6.024 5.20887C5.96793 5.23264 5.91257 5.25816 5.858 5.2854C5.741 5.34228 5.571 5.43019 5.372 5.54809C4.88321 5.83286 4.43213 6.18187 4.03 6.58643C3.577 7.05492 3.297 7.68578 3.14 8.17496C2.937 8.80168 2.421 9.3798 1.687 9.50701C1.63489 9.51603 1.58754 9.54382 1.55332 9.58545C1.5191 9.62709 1.50022 9.67989 1.5 9.73453V11.5485C1.5 11.7192 1.62 11.865 1.783 11.8929C2.407 12.0005 2.898 12.4224 3.175 12.9333C3.54364 13.6147 3.99941 14.2415 4.53 14.7969C4.98727 15.2563 5.52526 15.6211 6.115 15.8715C6.36566 15.9807 6.62452 16.0685 6.889 16.1342L6.894 16.1362C7.06468 16.1708 7.21845 16.2656 7.32899 16.4044C7.43954 16.5433 7.49999 16.7175 7.5 16.8974V18.1901C7.5 18.3329 7.612 18.4487 7.75 18.4487H9C9 18.0373 9.15804 17.6427 9.43934 17.3518C9.72064 17.0608 10.1022 16.8974 10.5 16.8974H12.5C12.8978 16.8974 13.2794 17.0608 13.5607 17.3518C13.842 17.6427 14 18.0373 14 18.4487H15.25C15.3163 18.4487 15.3799 18.4215 15.4268 18.373C15.4737 18.3245 15.5 18.2587 15.5 18.1901V15.8632C15.5 15.5705 15.66 15.3027 15.912 15.1703L15.925 15.163L15.995 15.1217C16.06 15.0813 16.159 15.0183 16.28 14.9272C16.522 14.7452 16.851 14.4629 17.18 14.0658C17.833 13.2787 18.5 12.0305 18.5 10.1751C18.5 9.13366 18.312 8.29286 17.991 7.60201C18.3484 7.112 18.6186 6.56009 18.789 5.97211C18.889 6.11276 18.983 6.25858 19.071 6.40958C19.675 7.44274 20 8.68895 20 10.1741C20 12.4565 19.167 14.0523 18.32 15.0751C17.9343 15.5413 17.4904 15.9523 17 16.2976V18.1891C17.0001 18.4269 16.955 18.6623 16.8671 18.882C16.7792 19.1017 16.6503 19.3014 16.4878 19.4695C16.3253 19.6377 16.1323 19.7711 15.9199 19.8621C15.7075 19.9532 15.4799 20 15.25 20H14C13.6022 20 13.2206 19.8366 12.9393 19.5456C12.658 19.2547 12.5 18.8601 12.5 18.4487H10.5C10.5 18.8601 10.342 19.2547 10.0607 19.5456C9.77936 19.8366 9.39782 20 9 20H7.75C7.28587 20 6.84075 19.8093 6.51256 19.4699C6.18437 19.1305 6 18.6702 6 18.1901V17.4838C5.84332 17.4291 5.68855 17.3688 5.536 17.3028C4.76647 16.9744 4.0651 16.4962 3.47 15.8942C2.84222 15.237 2.30242 14.4958 1.865 13.6903C1.83259 13.6235 1.78628 13.565 1.7294 13.5188C1.67252 13.4727 1.60647 13.4401 1.536 13.4235C1.10698 13.3492 0.717293 13.1201 0.436103 12.7768C0.154913 12.4336 0.000405054 11.9984 0 11.5485V9.73557C0 8.86374 0.61 8.12014 1.44 7.97743C1.527 7.96191 1.656 7.87194 1.717 7.68371C1.909 7.08698 2.282 6.20067 2.97 5.48914C3.46626 4.98702 4.02361 4.55384 4.628 4.20053C4.76533 4.11986 4.88933 4.05091 5 3.99369V1.04311C5 0.0730352 6.13 -0.325132 6.74 0.302628C7.07 0.642879 7.55 1.09586 8.081 1.47541M11.07 6.39717C10.58 6.18723 10.166 5.78802 10.068 5.24921C9.88976 4.24531 10.0765 3.20871 10.5923 2.33853C11.1081 1.46836 11.9167 0.82599 12.8626 0.534831C13.8085 0.243671 14.8251 0.324258 15.7171 0.761108C16.609 1.19796 17.3134 1.96026 17.695 2.90157C18.0469 3.77874 18.0962 4.7544 17.8347 5.66474C17.5732 6.57508 17.0168 7.36465 16.259 7.90089C15.821 8.21012 15.256 8.18944 14.766 7.97949L11.07 6.39717ZM15.464 6.58332C15.9579 6.21093 16.3029 5.66443 16.4339 5.04698C16.5649 4.42954 16.4728 3.78385 16.1751 3.23181C15.8773 2.67976 15.3944 2.25954 14.8176 2.05047C14.2407 1.8414 13.6099 1.85794 13.044 2.09696C12.5237 2.31942 12.0913 2.71696 11.8167 3.22524C11.5421 3.73351 11.4415 4.32276 11.531 4.89758L11.552 4.91412C11.5809 4.93393 11.6118 4.95056 11.644 4.96377L15.34 6.54609C15.3797 6.56364 15.4213 6.57581 15.464 6.58229M7 7.5896C7 7.86389 6.89464 8.12694 6.70711 8.32089C6.51957 8.51484 6.26522 8.6238 6 8.6238C5.73478 8.6238 5.48043 8.51484 5.29289 8.32089C5.10536 8.12694 5 7.86389 5 7.5896C5 7.31531 5.10536 7.05226 5.29289 6.85831C5.48043 6.66436 5.73478 6.5554 6 6.5554C6.26522 6.5554 6.51957 6.66436 6.70711 6.85831C6.89464 7.05226 7 7.31531 7 7.5896Z" fill="currentColor"></path>
</symbol>
<symbol viewBox="0 0 24 24" fill="none" stroke="currentColor" stroke-width="2" stroke-linecap="round" stroke-linejoin="round" id="plus"><path d="M5 12h14"></path><path d="M12 5v14"></path></symbol>
<symbol viewBox="0 0 24 24" fill="none" stroke="currentColor" stroke-width="2" stroke-linecap="round" stroke-linejoin="round" class="lucide lucide-receipt-text" id="reciept"><path d="M4 2v20l2-1 2 1 2-1 2 1 2-1 2 1 2-1 2 1V2l-2 1-2-1-2 1-2-1-2 1-2-1-2 1Z"></path><path d="M14 8H8"></path><path d="M16 12H8"></path><path d="M13 16H8"></path></symbol>
<symbol viewBox="0 0 18 18" fill="none" id="replay">
<path d="M9 3.75V0.75L5.25 4.5L9 8.25V5.25C11.4825 5.25 13.5 7.2675 13.5 9.75C13.5 12.2325 11.4825 14.25 9 14.25C6.5175 14.25 4.5 12.2325 4.5 9.75H3C3 13.065 5.685 15.75 9 15.75C12.315 15.75 15 13.065 15 9.75C15 6.435 12.315 3.75 9 3.75Z" fill="currentColor"></path>
</symbol>
<symbol viewBox="0 0 20 20" fill="none" id="safe">
<g clip-path="url(#clip0_2877_34378)">
<path d="M3.33073 4.00001V8.00001M3.33073 10.6667V14.6667M3.33073 18V20M16.6641 18V20M12.6641 12.6667C11.9568 12.6667 11.2785 12.3857 10.7784 11.8856C10.2783 11.3855 9.9974 10.7072 9.9974 10C9.9974 9.29276 10.2783 8.61448 10.7784 8.11439C11.2785 7.61429 11.9568 7.33334 12.6641 7.33334C13.3713 7.33334 14.0496 7.61429 14.5497 8.11439C15.0498 8.61448 15.3307 9.29276 15.3307 10C15.3307 10.7072 15.0498 11.3855 14.5497 11.8856C14.0496 12.3857 13.3713 12.6667 12.6641 12.6667ZM1.9974 0.666672H17.9974C18.351 0.666672 18.6902 0.807148 18.9402 1.0572C19.1903 1.30724 19.3307 1.64638 19.3307 2.00001V16.6667C19.3307 17.0203 19.1903 17.3594 18.9402 17.6095C18.6902 17.8595 18.351 18 17.9974 18H1.9974C1.64377 18 1.30464 17.8595 1.05459 17.6095C0.804538 17.3594 0.664063 17.0203 0.664062 16.6667V2.00001C0.664062 1.64638 0.804538 1.30724 1.05459 1.0572C1.30464 0.807148 1.64377 0.666672 1.9974 0.666672Z" stroke="currentColor" stroke-width="1.33333"></path>
</g>
<defs>
<clipPath id="clip0_2877_34378">
<rect width="20" height="20" fill="white"></rect>
</clipPath>
</defs>
</symbol>
<symbol class="ionicon" viewBox="0 0 512 512" id="search"><path d="M221.09 64a157.09 157.09 0 10157.09 157.09A157.1 157.1 0 00221.09 64z" fill="none" stroke="currentColor" stroke-miterlimit="10" stroke-width="32"></path><path fill="none" stroke="currentColor" stroke-linecap="round" stroke-miterlimit="10" stroke-width="32" d="M338.29 338.29L448 448"></path></symbol>
<symbol class="ionicon" viewBox="0 0 512 512" id="settings"><path d="M262.29 192.31a64 64 0 1057.4 57.4 64.13 64.13 0 00-57.4-57.4zM416.39 256a154.34 154.34 0 01-1.53 20.79l45.21 35.46a10.81 10.81 0 012.45 13.75l-42.77 74a10.81 10.81 0 01-13.14 4.59l-44.9-18.08a16.11 16.11 0 00-15.17 1.75A164.48 164.48 0 01325 400.8a15.94 15.94 0 00-8.82 12.14l-6.73 47.89a11.08 11.08 0 01-10.68 9.17h-85.54a11.11 11.11 0 01-10.69-8.87l-6.72-47.82a16.07 16.07 0 00-9-12.22 155.3 155.3 0 01-21.46-12.57 16 16 0 00-15.11-1.71l-44.89 18.07a10.81 10.81 0 01-13.14-4.58l-42.77-74a10.8 10.8 0 012.45-13.75l38.21-30a16.05 16.05 0 006-14.08c-.36-4.17-.58-8.33-.58-12.5s.21-8.27.58-12.35a16 16 0 00-6.07-13.94l-38.19-30A10.81 10.81 0 0149.48 186l42.77-74a10.81 10.81 0 0113.14-4.59l44.9 18.08a16.11 16.11 0 0015.17-1.75A164.48 164.48 0 01187 111.2a15.94 15.94 0 008.82-12.14l6.73-47.89A11.08 11.08 0 01213.23 42h85.54a11.11 11.11 0 0110.69 8.87l6.72 47.82a16.07 16.07 0 009 12.22 155.3 155.3 0 0121.46 12.57 16 16 0 0015.11 1.71l44.89-18.07a10.81 10.81 0 0113.14 4.58l42.77 74a10.8 10.8 0 01-2.45 13.75l-38.21 30a16.05 16.05 0 00-6.05 14.08c.33 4.14.55 8.3.55 12.47z" fill="none" stroke="currentColor" stroke-linecap="round" stroke-linejoin="round" stroke-width="32"></path></symbol>
<symbol viewBox="0 0 24 24" fill="none" stroke="currentColor" stroke-width="2" stroke-linecap="round" stroke-linejoin="round" id="signal"><path d="M2 20h.01"></path><path d="M7 20v-4"></path><path d="M12 20v-8"></path><path d="M17 20V8"></path></symbol>
<symbol viewBox="0 0 20 20" fill="none" id="support">
<path d="M9.9974 1.66666C5.4024 1.66666 1.66406 5.40499 1.66406 9.99999V13.4525C1.66406 14.3058 2.41156 15 3.33073 15H4.16406C4.38508 15 4.59704 14.9122 4.75332 14.7559C4.9096 14.5996 4.9974 14.3877 4.9974 14.1667V9.88082C4.9974 9.65981 4.9096 9.44785 4.75332 9.29157C4.59704 9.13529 4.38508 9.04749 4.16406 9.04749H3.4074C3.87073 5.82249 6.64573 3.33332 9.9974 3.33332C13.3491 3.33332 16.1241 5.82249 16.5874 9.04749H15.8307C15.6097 9.04749 15.3978 9.13529 15.2415 9.29157C15.0852 9.44785 14.9974 9.65981 14.9974 9.88082V15C14.9974 15.9192 14.2499 16.6667 13.3307 16.6667H11.6641V15.8333H8.33073V18.3333H13.3307C15.1691 18.3333 16.6641 16.8383 16.6641 15C17.5832 15 18.3307 14.3058 18.3307 13.4525V9.99999C18.3307 5.40499 14.5924 1.66666 9.9974 1.66666Z" fill="currentColor"></path>
</symbol>
<symbol viewBox="0 0 20 20" fill="none" id="target">
<path d="M10.003 19C8.759 19 7.589 18.764 6.493 18.292C5.39767 17.8193 4.44467 17.178 3.634 16.368C2.82333 15.558 2.18167 14.606 1.709 13.512C1.23633 12.418 1 11.2483 1 10.003C1 8.75767 1.23633 7.58767 1.709 6.493C2.181 5.39767 2.82133 4.44467 3.63 3.634C4.43867 2.82333 5.391 2.18167 6.487 1.709C7.583 1.23633 8.753 1 9.997 1C11.241 1 12.411 1.23633 13.507 1.709C14.6023 2.181 15.5553 2.82167 16.366 3.631C17.1767 4.44033 17.8183 5.39267 18.291 6.488C18.7637 7.58333 19 8.753 19 9.997C19 11.241 18.764 12.411 18.292 13.507C17.82 14.603 17.1787 15.556 16.368 16.366C15.5573 17.176 14.6053 17.8177 13.512 18.291C12.4187 18.7643 11.249 19.0007 10.003 19ZM10 18C12.2333 18 14.125 17.225 15.675 15.675C17.225 14.125 18 12.2333 18 10C18 7.76667 17.225 5.875 15.675 4.325C14.125 2.775 12.2333 2 10 2C7.76667 2 5.875 2.775 4.325 4.325C2.775 5.875 2 7.76667 2 10C2 12.2333 2.775 14.125 4.325 15.675C5.875 17.225 7.76667 18 10 18ZM10.005 15C8.617 15 7.436 14.5143 6.462 13.543C5.488 12.5717 5.00067 11.3923 5 10.005C4.99933 8.61767 5.485 7.436 6.457 6.46C7.429 5.484 8.60833 4.99733 9.995 5C11.3817 5.00267 12.563 5.48833 13.539 6.457C14.515 7.42567 15.002 8.605 15 9.995C14.998 11.385 14.5123 12.5663 13.543 13.539C12.5737 14.5117 11.3943 14.9987 10.005 15ZM10 14C11.1 14 12.0417 13.6083 12.825 12.825C13.6083 12.0417 14 11.1 14 10C14 8.9 13.6083 7.95833 12.825 7.175C12.0417 6.39167 11.1 6 10 6C8.9 6 7.95833 6.39167 7.175 7.175C6.39167 7.95833 6 8.9 6 10C6 11.1 6.39167 12.0417 7.175 12.825C7.95833 13.6083 8.9 14 10 14ZM10 11C9.732 11 9.49833 10.9003 9.299 10.701C9.09967 10.5017 9 10.268 9 10C9 9.732 9.09967 9.49833 9.299 9.299C9.49833 9.09967 9.732 9 10 9C10.268 9 10.5017 9.09967 10.701 9.299C10.9003 9.49833 11 9.732 11 10C11 10.268 10.9003 10.5017 10.701 10.701C10.5017 10.9003 10.268 11 10 11Z" fill="currentColor"></path>
</symbol>
<symbol viewBox="0 0 24 24" fill="none" stroke="currentColor" stroke-width="2" stroke-linecap="round" stroke-linejoin="round" class="lucide lucide-thumbs-down" id="thumbs-down"><path d="M17 14V2"></path><path d="M9 18.12 10 14H4.17a2 2 0 0 1-1.92-2.56l2.33-8A2 2 0 0 1 6.5 2H20a2 2 0 0 1 2 2v8a2 2 0 0 1-2 2h-2.76a2 2 0 0 0-1.79 1.11L12 22a3.13 3.13 0 0 1-3-3.88Z"></path></symbol>
<symbol viewBox="0 0 24 24" fill="none" stroke="currentColor" stroke-width="2" stroke-linecap="round" stroke-linejoin="round" class="lucide lucide-thumbs-up" id="thumbs-up"><path d="M7 10v12"></path><path d="M15 5.88 14 10h5.83a2 2 0 0 1 1.92 2.56l-2.33 8A2 2 0 0 1 17.5 22H4a2 2 0 0 1-2-2v-8a2 2 0 0 1 2-2h2.76a2 2 0 0 0 1.79-1.11L12 2a3.13 3.13 0 0 1 3 3.88Z"></path></symbol>
<symbol viewBox="0 0 20 20" fill="none" id="transaction">
<path d="M14.75 2V4.14286H2V6.28571H14.75V8.42857L19 5.21429L14.75 2ZM6.25 10.5714L2 13.7857L6.25 17V14.8571H19V12.7143H6.25V10.5714Z" fill="currentColor"></path>
</symbol>
<symbol viewBox="0 0 18 18" fill="none" id="transfer">
<path d="M17 7L1 7L6.5 1" stroke="currentColor" stroke-opacity="0.75" stroke-width="1.5" stroke-linecap="round" stroke-linejoin="round"></path>
<path opacity="0.5" d="M1 11L17 11L11.5 17" stroke="currentColor" stroke-opacity="0.75" stroke-width="1.5" stroke-linecap="round" stroke-linejoin="round"></path>
</symbol>
<symbol viewBox="0 0 24 24" fill="none" stroke="currentColor" stroke-width="2" stroke-linecap="round" stroke-linejoin="round" id="trash"><path d="M3 6h18"></path><path d="M19 6v14c0 1-1 2-2 2H7c-1 0-2-1-2-2V6"></path><path d="M8 6V4c0-1 1-2 2-2h4c1 0 2 1 2 2v2"></path><line x1="10" x2="10" y1="11" y2="17"></line><line x1="14" x2="14" y1="11" y2="17"></line></symbol>
<symbol class="ionicon" viewBox="0 0 512 512" id="trending-up"><path fill="none" stroke="currentColor" stroke-linecap="round" stroke-linejoin="round" stroke-width="32" d="M352 144h112v112"></path><path d="M48 368l121.37-121.37a32 32 0 0145.26 0l50.74 50.74a32 32 0 0045.26 0L448 160" fill="none" stroke="currentColor" stroke-linecap="round" stroke-linejoin="round" stroke-width="32"></path></symbol>
<symbol viewBox="0 0 25 25" fill="none" id="unblock">
<path fill-rule="evenodd" clip-rule="evenodd" d="M3.58503 20.5906C4.69933 21.7049 6.0222 22.5888 7.47811 23.1919C8.93402 23.7949 10.4945 24.1053 12.0703 24.1053C13.6462 24.1053 15.2066 23.7949 16.6625 23.1919C18.1184 22.5888 19.4413 21.7049 20.5556 20.5906C21.6699 19.4763 22.5538 18.1534 23.1569 16.6975C23.7599 15.2416 24.0703 13.6812 24.0703 12.1053C24.0703 10.5295 23.7599 8.96904 23.1569 7.51313C22.5538 6.05722 21.6699 4.73435 20.5556 3.62005C18.3052 1.36961 15.2529 0.105331 12.0703 0.105331C8.88772 0.105331 5.83547 1.36961 3.58503 3.62005C1.33459 5.87049 0.0703125 8.92273 0.0703125 12.1053C0.0703125 15.2879 1.33459 18.3402 3.58503 20.5906ZM6.47968 19.5813C8.27733 20.9267 10.4997 21.5791 12.7394 21.4188C14.979 21.2585 17.0858 20.2963 18.6736 18.7086C20.2613 17.1209 21.2235 15.014 21.3838 12.7744C21.5441 10.5347 20.8917 8.31235 19.5463 6.5147L15.841 10.22C15.5895 10.4629 15.2527 10.5973 14.9031 10.5942C14.5535 10.5912 14.2191 10.451 13.9719 10.2038C13.7247 9.95656 13.5844 9.62214 13.5814 9.27255C13.5784 8.92296 13.7128 8.58616 13.9556 8.33469L17.6596 4.62938C15.8616 3.28754 13.6404 2.63807 11.4027 2.79985C9.16502 2.96162 7.0604 3.92381 5.47405 5.51032C3.88771 7.09683 2.92573 9.20154 2.76419 11.4393C2.60265 13.677 3.25234 15.8981 4.59436 17.696L8.29967 13.9907C8.55114 13.7478 8.88794 13.6134 9.23753 13.6164C9.58713 13.6195 9.92154 13.7597 10.1687 14.0069C10.416 14.2541 10.5562 14.5885 10.5592 14.9381C10.5623 15.2877 10.4279 15.6245 10.185 15.876L6.47968 19.5813Z" fill="currentColor"></path>
</symbol>
<symbol viewBox="0 0 24 24" fill="none" stroke="currentColor" stroke-width="2" stroke-linecap="round" stroke-linejoin="round" id="upload"><path d="M4 14.899A7 7 0 1 1 15.71 8h1.79a4.5 4.5 0 0 1 2.5 8.242"></path><path d="M12 12v9"></path><path d="m16 16-4-4-4 4"></path></symbol>
<symbol viewBox="0 0 20 20" fill="none" id="user-role">
<path d="M15.324 12.8214L12.4545 10.0357L15.324 7.25L16 7.90464L13.8065 10.0357L16 12.1668L15.324 12.8214ZM12.4545 17H11.5091V14.6786C11.5091 14.0629 11.2601 13.4724 10.8168 13.0371C10.3735 12.6017 9.77233 12.3571 9.14545 12.3571H6.30909C5.68222 12.3571 5.08102 12.6017 4.63775 13.0371C4.19448 13.4724 3.94545 14.0629 3.94545 14.6786V17H3V14.6786C3 13.8166 3.34864 12.99 3.96921 12.3805C4.58979 11.771 5.43147 11.4286 6.30909 11.4286H9.14545C10.0231 11.4286 10.8648 11.771 11.4853 12.3805C12.1059 12.99 12.4545 13.8166 12.4545 14.6786V17ZM7.72727 4.92857C8.19476 4.92857 8.65174 5.06472 9.04044 5.3198C9.42914 5.57488 9.73209 5.93744 9.91099 6.36163C10.0899 6.78581 10.1367 7.25258 10.0455 7.70289C9.95429 8.1532 9.72918 8.56684 9.39862 8.8915C9.06806 9.21616 8.6469 9.43725 8.1884 9.52682C7.72989 9.6164 7.25465 9.57042 6.82275 9.39472C6.39085 9.21902 6.0217 8.92147 5.76198 8.53972C5.50226 8.15796 5.36364 7.70914 5.36364 7.25C5.36364 6.63432 5.61266 6.04385 6.05593 5.6085C6.4992 5.17315 7.1004 4.92857 7.72727 4.92857ZM7.72727 4C7.0728 4 6.43302 4.19061 5.88884 4.54772C5.34466 4.90484 4.92053 5.41242 4.67007 6.00628C4.41961 6.60014 4.35408 7.25361 4.48177 7.88404C4.60945 8.51448 4.92461 9.09358 5.38739 9.5481C5.85018 10.0026 6.4398 10.3122 7.0817 10.4376C7.7236 10.563 8.38895 10.4986 8.99361 10.2526C9.59826 10.0066 10.1151 9.59006 10.4787 9.0556C10.8423 8.52114 11.0364 7.89279 11.0364 7.25C11.0364 6.38805 10.6877 5.5614 10.0672 4.9519C9.44658 4.34241 8.6049 4 7.72727 4Z" fill="currentColor" fill-opacity="0.75"></path>
<path d="M15.2195 12.9291L15.3239 13.0304L15.4283 12.9292L16.1044 12.2745L16.2154 12.167L16.1045 12.0592L14.0218 10.0357L16.1045 8.01223L16.2154 7.90447L16.1044 7.79689L15.4283 7.14225L15.3239 7.04107L15.2195 7.14238L12.3501 9.92809L12.2392 10.0357L12.3501 10.1433L15.2195 12.9291ZM12.4545 17.15H12.6045V17V14.6786C12.6045 13.776 12.2394 12.9109 11.5904 12.2735C10.9415 11.6361 10.062 11.2786 9.14545 11.2786H6.30909C5.39255 11.2786 4.51301 11.6361 3.8641 12.2735C3.21511 12.9109 2.85 13.776 2.85 14.6786V17V17.15H3H3.94545H4.09545V17V14.6786C4.09545 14.1036 4.32801 13.5515 4.74285 13.1441C5.15779 12.7366 5.72113 12.5071 6.30909 12.5071H9.14545C9.73341 12.5071 10.2968 12.7366 10.7117 13.1441C11.1265 13.5515 11.3591 14.1036 11.3591 14.6786V17V17.15H11.5091H12.4545ZM7.72727 5.07857C8.16568 5.07857 8.59403 5.20627 8.95814 5.44521C9.32222 5.68413 9.60557 6.02344 9.77278 6.41992C9.93997 6.81636 9.98368 7.25244 9.89848 7.67311C9.81327 8.09381 9.60289 8.48062 9.29351 8.78448C8.9841 9.08837 8.58955 9.29562 8.15963 9.37961C7.7297 9.4636 7.2841 9.42047 6.87927 9.25578C6.47447 9.0911 6.12892 8.8124 5.886 8.45534C5.64311 8.09832 5.51364 7.67886 5.51364 7.25C5.51364 6.67498 5.74619 6.12296 6.16104 5.71552C6.57597 5.30799 7.13932 5.07857 7.72727 5.07857ZM7.72727 3.85C7.04372 3.85 6.37531 4.04906 5.80654 4.42232C5.23774 4.79559 4.794 5.32642 4.53186 5.94799C4.2697 6.56959 4.20107 7.25375 4.33475 7.91382C4.46843 8.57387 4.79833 9.1798 5.28229 9.65511C5.76622 10.1304 6.38246 10.4538 7.05294 10.5848C7.72341 10.7158 8.4184 10.6485 9.05013 10.3916C9.68189 10.1345 10.2223 9.69914 10.6027 9.13998C10.9831 8.58079 11.1864 7.92306 11.1864 7.25C11.1864 6.34738 10.8213 5.48229 10.1723 4.84489C9.52335 4.20757 8.64382 3.85 7.72727 3.85Z" stroke="currentColor" stroke-opacity="0.75" stroke-width="0.3"></path>
</symbol>
<symbol viewBox="0 0 16 17" fill="none" id="user">
<path d="M14.4325 13.75C13.4806 12.1044 12.0138 10.9244 10.3019 10.365C11.1486 9.86092 11.8065 9.09281 12.1745 8.17863C12.5425 7.26445 12.6002 6.25476 12.3388 5.3046C12.0774 4.35445 11.5113 3.51638 10.7275 2.91908C9.94367 2.32179 8.98546 1.99831 8 1.99831C7.01454 1.99831 6.05633 2.32179 5.27252 2.91908C4.4887 3.51638 3.92262 4.35445 3.66121 5.3046C3.3998 6.25476 3.45752 7.26445 3.82549 8.17863C4.19347 9.09281 4.85135 9.86092 5.69812 10.365C3.98625 10.9238 2.51937 12.1038 1.5675 13.75C1.53259 13.8069 1.50944 13.8703 1.4994 13.9363C1.48937 14.0023 1.49266 14.0696 1.50908 14.1343C1.52549 14.1991 1.55471 14.2598 1.59499 14.3131C1.63528 14.3663 1.68582 14.411 1.74364 14.4444C1.80146 14.4778 1.86538 14.4992 1.93163 14.5075C1.99788 14.5158 2.06512 14.5108 2.12939 14.4927C2.19365 14.4745 2.25364 14.4437 2.3058 14.4021C2.35797 14.3604 2.40126 14.3087 2.43312 14.25C3.61062 12.215 5.69187 11 8 11C10.3081 11 12.3894 12.215 13.5669 14.25C13.5987 14.3087 13.642 14.3604 13.6942 14.4021C13.7464 14.4437 13.8063 14.4745 13.8706 14.4927C13.9349 14.5108 14.0021 14.5158 14.0684 14.5075C14.1346 14.4992 14.1985 14.4778 14.2564 14.4444C14.3142 14.411 14.3647 14.3663 14.405 14.3131C14.4453 14.2598 14.4745 14.1991 14.4909 14.1343C14.5073 14.0696 14.5106 14.0023 14.5006 13.9363C14.4906 13.8703 14.4674 13.8069 14.4325 13.75ZM4.5 6.50001C4.5 5.80777 4.70527 5.13108 5.08986 4.55551C5.47444 3.97994 6.02107 3.53133 6.66061 3.26643C7.30015 3.00152 8.00388 2.93221 8.68282 3.06726C9.36175 3.20231 9.98539 3.53565 10.4749 4.02513C10.9644 4.51462 11.2977 5.13826 11.4327 5.81719C11.5678 6.49612 11.4985 7.19986 11.2336 7.8394C10.9687 8.47894 10.5201 9.02557 9.9445 9.41015C9.36892 9.79474 8.69223 10 8 10C7.07205 9.99901 6.18238 9.62995 5.52622 8.97378C4.87006 8.31762 4.50099 7.42796 4.5 6.50001Z" fill="currentColor"></path>
</symbol>
<symbol viewBox="0 0 18 19" fill="none" id="wifi">
<path d="M15.8948 7.856C12.087 4.04825 5.91376 4.04825 2.10601 7.856L1.57576 8.38625L0.515259 7.325L1.04551 6.79475C5.43901 2.402 12.5618 2.402 16.9553 6.79475L17.4855 7.325L16.425 8.38625L15.8948 7.856ZM12.447 11.303C11.5328 10.3888 10.2929 9.87529 9.00001 9.87529C7.70715 9.87529 6.46724 10.3888 5.55301 11.303L5.02276 11.8332L3.96226 10.7727L4.49251 10.2425C5.68803 9.04714 7.3094 8.37561 9.00001 8.37561C10.6906 8.37561 12.312 9.04714 13.5075 10.2425L14.0385 10.7727L12.9773 11.8332L12.447 11.303ZM7.93951 13.6895C8.0788 13.5501 8.24419 13.4396 8.42622 13.3642C8.60825 13.2888 8.80335 13.2499 9.00038 13.2499C9.19742 13.2499 9.39252 13.2888 9.57455 13.3642C9.75658 13.4396 9.92196 13.5501 10.0613 13.6895L10.5915 14.2197L9.00001 15.8105L7.41001 14.2197L7.93951 13.6895Z" fill="currentColor"></path>
</symbol>
<symbol viewBox="0 0 24 24" fill="none" stroke="currentColor" stroke-width="2" stroke-linecap="round" stroke-linejoin="round" id="wrench"><path d="M14.7 6.3a1 1 0 0 0 0 1.4l1.6 1.6a1 1 0 0 0 1.4 0l3.77-3.77a6 6 0 0 1-7.94 7.94l-6.91 6.91a2.12 2.12 0 0 1-3-3l6.91-6.91a6 6 0 0 1 7.94-7.94l-3.76 3.76z"></path></symbol>
</defs>
</svg>
