<svg width="30" height="30" viewBox="0 0 30 30" fill="none" xmlns="http://www.w3.org/2000/svg">
<path d="M0 12.8C0 8.31958 0 6.07937 0.871948 4.36808C1.63893 2.86278 2.86278 1.63893 4.36808 0.871948C6.07937 0 8.31958 0 12.8 0H17.2C21.6804 0 23.9206 0 25.6319 0.871948C27.1372 1.63893 28.3611 2.86278 29.1281 4.36808C30 6.07937 30 8.31958 30 12.8V17.2C30 21.6804 30 23.9206 29.1281 25.6319C28.3611 27.1372 27.1372 28.3611 25.6319 29.1281C23.9206 30 21.6804 30 17.2 30H12.8C8.31958 30 6.07937 30 4.36808 29.1281C2.86278 28.3611 1.63893 27.1372 0.871948 25.6319C0 23.9206 0 21.6804 0 17.2V12.8Z" fill="#E5E9FF"/>
<path d="M9.75 17.5C9.51794 17.5 9.29538 17.5878 9.13128 17.7441C8.96719 17.9004 8.875 18.1123 8.875 18.3333V20.8333C8.875 21.0544 8.96719 21.2663 9.13128 21.4226C9.29538 21.5789 9.51794 21.6667 9.75 21.6667C9.98206 21.6667 10.2046 21.5789 10.3687 21.4226C10.5328 21.2663 10.625 21.0544 10.625 20.8333V18.3333C10.625 18.1123 10.5328 17.9004 10.3687 17.7441C10.2046 17.5878 9.98206 17.5 9.75 17.5ZM13.25 15C13.0179 15 12.7954 15.0878 12.6313 15.2441C12.4672 15.4004 12.375 15.6123 12.375 15.8333V20.8333C12.375 21.0544 12.4672 21.2663 12.6313 21.4226C12.7954 21.5789 13.0179 21.6667 13.25 21.6667C13.4821 21.6667 13.7046 21.5789 13.8687 21.4226C14.0328 21.2663 14.125 21.0544 14.125 20.8333V15.8333C14.125 15.6123 14.0328 15.4004 13.8687 15.2441C13.7046 15.0878 13.4821 15 13.25 15ZM20.25 8.33334C20.0179 8.33334 19.7954 8.42114 19.6313 8.57742C19.4672 8.7337 19.375 8.94566 19.375 9.16668V20.8333C19.375 21.0544 19.4672 21.2663 19.6313 21.4226C19.7954 21.5789 20.0179 21.6667 20.25 21.6667C20.4821 21.6667 20.7046 21.5789 20.8687 21.4226C21.0328 21.2663 21.125 21.0544 21.125 20.8333V9.16668C21.125 8.94566 21.0328 8.7337 20.8687 8.57742C20.7046 8.42114 20.4821 8.33334 20.25 8.33334ZM16.75 11.6667C16.5179 11.6667 16.2954 11.7545 16.1313 11.9108C15.9672 12.067 15.875 12.279 15.875 12.5V20.8333C15.875 21.0544 15.9672 21.2663 16.1313 21.4226C16.2954 21.5789 16.5179 21.6667 16.75 21.6667C16.9821 21.6667 17.2046 21.5789 17.3687 21.4226C17.5328 21.2663 17.625 21.0544 17.625 20.8333V12.5C17.625 12.279 17.5328 12.067 17.3687 11.9108C17.2046 11.7545 16.9821 11.6667 16.75 11.6667Z" fill="#010101" fill-opacity="0.75"/>
</svg>
