<svg width="30" height="30" viewBox="0 0 30 30" fill="none" xmlns="http://www.w3.org/2000/svg">
<path d="M0 12.8C0 8.31958 0 6.07937 0.871948 4.36808C1.63893 2.86278 2.86278 1.63893 4.36808 0.871948C6.07937 0 8.31958 0 12.8 0H17.2C21.6804 0 23.9206 0 25.6319 0.871948C27.1372 1.63893 28.3611 2.86278 29.1281 4.36808C30 6.07937 30 8.31958 30 12.8V17.2C30 21.6804 30 23.9206 29.1281 25.6319C28.3611 27.1372 27.1372 28.3611 25.6319 29.1281C23.9206 30 21.6804 30 17.2 30H12.8C8.31958 30 6.07937 30 4.36808 29.1281C2.86278 28.3611 1.63893 27.1372 0.871948 25.6319C0 23.9206 0 21.6804 0 17.2V12.8Z" fill="#E5E9FF"/>
<path d="M21.8948 13.356C18.087 9.54825 11.9138 9.54825 8.10601 13.356L7.57576 13.8862L6.51526 12.825L7.04551 12.2947C11.439 7.902 18.5618 7.902 22.9553 12.2947L23.4855 12.825L22.425 13.8862L21.8948 13.356ZM18.447 16.803C17.5328 15.8888 16.2929 15.3753 15 15.3753C13.7071 15.3753 12.4672 15.8888 11.553 16.803L11.0228 17.3332L9.96226 16.2727L10.4925 15.7425C11.688 14.5471 13.3094 13.8756 15 13.8756C16.6906 13.8756 18.312 14.5471 19.5075 15.7425L20.0385 16.2727L18.9773 17.3332L18.447 16.803ZM13.9395 19.1895C14.0788 19.0501 14.2442 18.9396 14.4262 18.8642C14.6082 18.7888 14.8033 18.7499 15.0004 18.7499C15.1974 18.7499 15.3925 18.7888 15.5745 18.8642C15.7566 18.9396 15.922 19.0501 16.0613 19.1895L16.5915 19.7197L15 21.3105L13.41 19.7197L13.9395 19.1895Z" fill="black"/>
</svg>
