<svg width="30" height="30" viewBox="0 0 30 30" fill="none" xmlns="http://www.w3.org/2000/svg">
<path d="M0 12.8C0 8.31958 0 6.07937 0.871948 4.36808C1.63893 2.86278 2.86278 1.63893 4.36808 0.871948C6.07937 0 8.31958 0 12.8 0H17.2C21.6804 0 23.9206 0 25.6319 0.871948C27.1372 1.63893 28.3611 2.86278 29.1281 4.36808C30 6.07937 30 8.31958 30 12.8V17.2C30 21.6804 30 23.9206 29.1281 25.6319C28.3611 27.1372 27.1372 28.3611 25.6319 29.1281C23.9206 30 21.6804 30 17.2 30H12.8C8.31958 30 6.07937 30 4.36808 29.1281C2.86278 28.3611 1.63893 27.1372 0.871948 25.6319C0 23.9206 0 21.6804 0 17.2V12.8Z" fill="#E5E9FF"/>
<path d="M23 13L7 13L12.5 7" stroke="#010101" stroke-opacity="0.75" stroke-width="1.5" stroke-linecap="round" stroke-linejoin="round"/>
<path opacity="0.5" d="M7 17L23 17L17.5 23" stroke="#010101" stroke-opacity="0.75" stroke-width="1.5" stroke-linecap="round" stroke-linejoin="round"/>
</svg>
